<?xml version="1.0" encoding="UTF-8"?>
<svg version="1.1" xmlns="http://www.w3.org/2000/svg" width="1920" height="709">
<path d="M0 0 C1.49825068 -0.00222254 2.99649988 -0.00576215 4.49474475 -0.01048949 C8.60348404 -0.01965804 12.71199911 -0.01020365 16.82072163 0.00234491 C21.29370565 0.01267836 25.76666773 0.00552926 30.23965627 0.00061244 C38.07612569 -0.00560115 45.91252669 -0.0006905 53.74898815 0.01152706 C65.40147908 0.02964355 77.05392693 0.03053341 88.70642937 0.0279011 C108.30844048 0.02396052 127.91042124 0.03397934 147.51242352 0.05195332 C166.92092444 0.06970424 186.32941273 0.08125113 205.73792171 0.08451176 C207.54804958 0.08482109 207.54804958 0.08482109 209.39474568 0.08513666 C215.52322625 0.08615166 221.65170682 0.08705581 227.78018741 0.08791729 C271.18844212 0.09421856 314.59668032 0.11443074 358.00492573 0.14282513 C400.17549775 0.17037808 442.34606526 0.19162909 484.51664448 0.20434856 C486.46645834 0.20494043 486.46645834 0.20494043 488.45566239 0.20554426 C501.50954787 0.20949982 514.56343339 0.21332726 527.61731894 0.21706083 C554.20960026 0.22466948 580.80188129 0.23313324 607.39416218 0.24211407 C608.61683284 0.24252594 609.8395035 0.24293781 611.09922479 0.24336216 C692.74740476 0.27096425 774.39557557 0.31849987 856.04374409 0.36914349 C856.12037302 6.86117189 856.17258475 13.35308187 856.20853901 19.84546185 C856.223542 22.04993327 856.24395096 24.25437527 856.27006245 26.4587431 C856.30682136 29.64379458 856.32355584 32.82844838 856.33671284 36.01367474 C856.35219669 36.98496822 856.36768055 37.95626171 856.38363361 38.95698833 C856.38597651 48.6777604 854.32499021 57.1741064 849.04374409 65.36914349 C848.38374409 65.36914349 847.72374409 65.36914349 847.04374409 65.36914349 C846.93933002 65.95179974 846.83491596 66.53445599 846.72733784 67.13476849 C845.94080792 69.70559771 844.86808518 71.10314928 843.10624409 73.11914349 C842.58159565 73.73273724 842.05694721 74.34633099 841.51640034 74.97851849 C840.04374409 76.36914349 840.04374409 76.36914349 838.04374409 76.36914349 C837.71374409 77.35914349 837.38374409 78.34914349 837.04374409 79.36914349 C834.98124409 80.05664349 834.98124409 80.05664349 833.04374409 80.36914349 C833.04374409 81.02914349 833.04374409 81.68914349 833.04374409 82.36914349 C830.07374409 83.35914349 830.07374409 83.35914349 827.04374409 84.36914349 C827.04374409 85.02914349 827.04374409 85.68914349 827.04374409 86.36914349 C822.58874409 87.35914349 822.58874409 87.35914349 818.04374409 88.36914349 C818.04374409 89.02914349 818.04374409 89.68914349 818.04374409 90.36914349 C810.52236291 91.97170421 803.37924796 92.66254876 795.69848347 92.64761639 C794.61102697 92.65340879 793.52357047 92.65920119 792.40316075 92.66516912 C788.78893966 92.68206403 785.17484707 92.68503655 781.56058979 92.68799114 C778.95801198 92.69729656 776.35543713 92.70746615 773.75286579 92.71843243 C768.16491259 92.74062187 762.57697744 92.75568493 756.98898983 92.76579952 C748.90987272 92.78043368 740.83081857 92.80598353 732.75173857 92.83413081 C719.64148956 92.87951309 706.53123144 92.91616315 693.42094135 92.94726849 C680.69143292 92.97748921 667.96194671 93.01185557 655.23246479 93.05176067 C654.44678792 93.05422222 653.66111104 93.05668377 652.85162578 93.05921991 C648.90980773 93.0715952 644.96798994 93.0840516 641.02617228 93.09654832 C608.36539307 93.19998779 575.70458948 93.2892332 543.04374409 93.36914349 C543.37374409 93.69914349 543.70374409 94.02914349 544.04374409 94.36914349 C544.14178404 96.53228974 544.16745553 98.69871179 544.16679192 100.86407852 C544.16794576 101.55408883 544.1690996 102.24409914 544.17028841 102.95501885 C544.17296173 105.29625466 544.16842709 107.63742341 544.1639986 109.97865582 C544.16443416 111.66243758 544.16530878 113.34621929 544.16658777 115.03000063 C544.1688358 119.67959196 544.16480727 124.32916049 544.15980971 128.97874892 C544.15550978 133.98423141 544.1569513 138.98971252 544.15771198 143.99519634 C544.15823751 152.67507071 544.15508772 161.35493758 544.14947414 170.03481007 C544.14136302 182.58460316 544.13874432 195.13439262 544.13748615 207.68418806 C544.13529502 228.04312383 544.12863328 248.40205559 544.11918354 268.76098919 C544.110011 288.54321555 544.10292939 308.32544082 544.09867573 328.10766888 C544.098413 329.32610035 544.09815028 330.54453182 544.0978796 331.79988546 C544.0965746 337.91211589 544.09531088 344.02434633 544.09406769 350.13657677 C544.08369318 400.88076844 544.06607321 451.62495577 544.04374409 502.36914349 C539.1731714 502.44436618 534.30295072 502.49824105 529.43192768 502.53393841 C527.781477 502.54884922 526.13106466 502.56918515 524.48075581 502.59546185 C513.86822813 502.75997215 504.35674618 502.16202956 494.04374409 499.36914349 C494.04374409 498.70914349 494.04374409 498.04914349 494.04374409 497.36914349 C493.28061909 497.22476849 492.51749409 497.08039349 491.73124409 496.93164349 C489.04374409 496.36914349 489.04374409 496.36914349 486.04374409 495.36914349 C486.04374409 494.70914349 486.04374409 494.04914349 486.04374409 493.36914349 C484.40405659 492.96695599 484.40405659 492.96695599 482.73124409 492.55664349 C479.21170784 491.42323351 478.29247587 491.02673559 476.04374409 488.36914349 C475.30124409 487.81226849 474.55874409 487.25539349 473.79374409 486.68164349 C467.97779665 481.79096041 463.16303993 475.73532796 459.04374409 469.36914349 C459.04374409 468.37914349 459.04374409 467.38914349 459.04374409 466.36914349 C458.38374409 466.36914349 457.72374409 466.36914349 457.04374409 466.36914349 C454.80669907 461.46894963 453.14939093 456.59461775 451.69218159 451.40820599 C451.22447799 449.39668959 451.22447799 449.39668959 450.04374409 448.36914349 C448.60519471 441.41776532 448.90764797 434.34459372 448.92348957 427.27797222 C448.92305322 425.83237531 448.92217714 424.38677849 448.9209004 422.94118208 C448.91866798 418.97783811 448.9226596 415.01452124 448.92767847 411.05118072 C448.93200075 406.77382686 448.93053528 402.4964745 448.92977619 398.21911907 C448.92925209 390.81129438 448.93238707 383.40347849 448.93801403 375.99565601 C448.94614435 365.28521513 448.94874582 354.57477851 448.95000202 343.86433487 C448.95219013 326.4869477 448.95884369 309.10956522 448.96830463 291.7321806 C448.97748498 274.85262354 448.98455131 257.97306776 448.98881245 241.09350872 C448.98908044 240.04227615 448.98934844 238.99104357 448.98962456 237.90795547 C448.99170401 229.68650963 448.99366092 221.46506377 448.99557912 213.24361789 C449.00501117 172.95212211 449.02512988 132.66063809 449.04374409 92.36914349 C347.40374409 92.36914349 245.76374409 92.36914349 141.04374409 92.36914349 C141.04374409 155.39914349 141.04374409 218.42914349 141.04374409 283.36914349 C141.70374409 283.36914349 142.36374409 283.36914349 143.04374409 283.36914349 C143.38147147 286.07699343 143.71405096 288.78531345 144.04374409 291.49414349 C144.18683002 292.6349638 144.18683002 292.6349638 144.33280659 293.79883099 C144.84204597 298.018243 145.15262477 302.10918693 145.04374409 306.36914349 C145.70374409 306.36914349 146.36374409 306.36914349 147.04374409 306.36914349 C147.70374409 310.32914349 148.36374409 314.28914349 149.04374409 318.36914349 C149.70374409 318.36914349 150.36374409 318.36914349 151.04374409 318.36914349 C151.37245502 319.35140911 151.37245502 319.35140911 151.70780659 320.35351849 C153.96013531 326.83583042 156.68045896 332.86081115 159.87186909 338.93554974 C161.04374409 341.36914349 161.04374409 341.36914349 161.04374409 343.36914349 C161.70374409 343.36914349 162.36374409 343.36914349 163.04374409 343.36914349 C163.44077534 344.22765911 163.83780659 345.08617474 164.24686909 345.97070599 C166.12232506 349.51776403 168.32076329 352.6061555 170.79374409 355.74414349 C171.2318642 356.30851116 171.66998432 356.87287884 172.12138081 357.45434856 C175.21457798 361.40701832 178.44615029 365.20306906 181.86405659 368.88086224 C183.04374409 370.36914349 183.04374409 370.36914349 183.04374409 372.36914349 C183.62897846 372.63597942 184.21421284 372.90281536 184.81718159 373.17773724 C187.07994781 374.38851565 188.7625798 375.72281339 190.66874409 377.43164349 C192.46186989 379.03292832 193.89030725 380.29242507 196.04374409 381.36914349 C196.04374409 382.02914349 196.04374409 382.68914349 196.04374409 383.36914349 C197.01311909 383.65789349 197.98249409 383.94664349 198.98124409 384.24414349 C202.04374409 385.36914349 202.04374409 385.36914349 203.04374409 387.36914349 C204.68737542 388.09073773 206.35424795 388.76265769 208.04374409 389.36914349 C208.04374409 390.02914349 208.04374409 390.68914349 208.04374409 391.36914349 C210.35374409 392.02914349 212.66374409 392.68914349 215.04374409 393.36914349 C215.04374409 394.02914349 215.04374409 394.68914349 215.04374409 395.36914349 C218.01374409 396.02914349 220.98374409 396.68914349 224.04374409 397.36914349 C224.04374409 398.02914349 224.04374409 398.68914349 224.04374409 399.36914349 C225.03374409 399.47226849 226.02374409 399.57539349 227.04374409 399.68164349 C230.48155568 400.16786783 233.46024777 401.26821057 236.69218159 402.54101849 C251.32502324 407.69411223 266.58967179 407.51231397 281.89024639 407.56837368 C284.86358003 407.58031438 287.83677806 407.59979863 290.81005573 407.62149334 C299.25484917 407.68263864 307.69962089 407.73720455 316.14457417 407.77051067 C321.33270289 407.79150996 326.52056989 407.82683738 331.70854855 407.87126827 C333.67437691 407.88536597 335.64025141 407.89413653 337.60612774 407.89732265 C340.35733944 407.90225849 343.10785971 407.92547934 345.85892963 407.95263958 C346.65863682 407.94963345 347.458344 407.94662731 348.28228474 407.94353008 C353.24944188 408.01596245 357.34959481 408.89435173 362.00727272 410.62987995 C364.00135718 411.35375653 365.97883606 411.88946502 368.04374409 412.36914349 C368.04374409 413.02914349 368.04374409 413.68914349 368.04374409 414.36914349 C368.80686909 414.51351849 369.56999409 414.65789349 370.35624409 414.80664349 C374.30267777 415.63264123 376.2956694 416.50158729 379.04374409 419.36914349 C379.70374409 419.69914349 380.36374409 420.02914349 381.04374409 420.36914349 C381.04374409 421.02914349 381.04374409 421.68914349 381.04374409 422.36914349 C382.18843159 422.70945599 382.18843159 422.70945599 383.35624409 423.05664349 C386.64090526 424.66078034 387.34292549 426.19943611 389.04374409 429.36914349 C389.60061909 429.92601849 390.15749409 430.48289349 390.73124409 431.05664349 C391.16436909 431.48976849 391.59749409 431.92289349 392.04374409 432.36914349 C392.04374409 433.02914349 392.04374409 433.68914349 392.04374409 434.36914349 C392.70374409 434.36914349 393.36374409 434.36914349 394.04374409 434.36914349 C395.50437259 437.01653265 396.04374409 438.26362683 396.04374409 441.36914349 C396.70374409 441.36914349 397.36374409 441.36914349 398.04374409 441.36914349 C398.24870502 442.07941692 398.45366596 442.78969036 398.66483784 443.52148724 C398.9342519 444.4405888 399.20366596 445.35969036 399.48124409 446.30664349 C399.74808002 447.22316692 400.01491596 448.13969036 400.28983784 449.08398724 C400.8340046 451.30939279 400.8340046 451.30939279 402.04374409 452.36914349 C403.0018945 458.31564606 403.1776774 464.10585835 403.14140034 470.11914349 C403.13927792 471.46722088 403.13927792 471.46722088 403.13711262 472.84253216 C403.13155992 475.68477124 403.11901646 478.52692862 403.10624409 481.36914349 C403.10122297 483.30794442 403.09666113 485.24674661 403.09257221 487.18554974 C403.08160603 491.91344532 403.06437453 496.6412806 403.04374409 501.36914349 C384.25729159 501.41611695 365.47085121 501.45125535 346.68435192 501.47276783 C337.95907711 501.48302732 329.23383904 501.49698413 320.50858784 501.52002239 C312.8929034 501.54012115 305.27724561 501.55289848 297.66153538 501.55732048 C293.63885864 501.55990033 289.61625803 501.56584904 285.593606 501.5806036 C268.31410517 501.64161154 251.23100712 501.42139958 234.04374409 499.36914349 C234.04374409 498.70914349 234.04374409 498.04914349 234.04374409 497.36914349 C233.24710346 497.30855755 232.45046284 497.24797161 231.62968159 497.18554974 C221.10525551 496.35332626 221.10525551 496.35332626 216.04374409 495.36914349 C216.04374409 494.70914349 216.04374409 494.04914349 216.04374409 493.36914349 C215.4520644 493.30855755 214.86038471 493.24797161 214.25077534 493.18554974 C202.97487891 491.98990003 202.97487891 491.98990003 199.04374409 489.36914349 C196.7226574 488.66101534 194.38997262 487.98890197 192.04374409 487.36914349 C192.04374409 486.70914349 192.04374409 486.04914349 192.04374409 485.36914349 C191.07436909 485.28664349 190.10499409 485.20414349 189.10624409 485.11914349 C184.37255307 484.46923099 180.30390001 482.44609025 176.04374409 480.36914349 C176.04374409 479.70914349 176.04374409 479.04914349 176.04374409 478.36914349 C173.40374409 477.70914349 170.76374409 477.04914349 168.04374409 476.36914349 C168.04374409 475.70914349 168.04374409 475.04914349 168.04374409 474.36914349 C165.73374409 473.70914349 163.42374409 473.04914349 161.04374409 472.36914349 C161.04374409 471.70914349 161.04374409 471.04914349 161.04374409 470.36914349 C159.06374409 469.70914349 157.08374409 469.04914349 155.04374409 468.36914349 C155.04374409 467.70914349 155.04374409 467.04914349 155.04374409 466.36914349 C153.95061909 466.10101849 152.85749409 465.83289349 151.73124409 465.55664349 C148.33369356 464.46251704 147.20786035 463.98886317 145.04374409 461.36914349 C144.38374409 461.03914349 143.72374409 460.70914349 143.04374409 460.36914349 C143.04374409 459.70914349 143.04374409 459.04914349 143.04374409 458.36914349 C141.72374409 458.03914349 140.40374409 457.70914349 139.04374409 457.36914349 C139.04374409 456.70914349 139.04374409 456.04914349 139.04374409 455.36914349 C138.32186909 455.12164349 137.59999409 454.87414349 136.85624409 454.61914349 C131.62374021 452.29358621 128.04135281 448.36675221 124.04374409 444.36914349 C122.75700964 443.25923301 121.46491622 442.15551774 120.16874409 441.05664349 C114.92437634 436.51350006 110.61276998 431.2868418 106.23124409 425.93164349 C104.30403016 423.33682377 104.30403016 423.33682377 102.04374409 422.36914349 C101.71374409 421.37914349 101.38374409 420.38914349 101.04374409 419.36914349 C100.38374409 418.70914349 99.72374409 418.04914349 99.04374409 417.36914349 C97.04374409 415.36914349 97.04374409 415.36914349 96.04374409 412.36914349 C94.58830656 410.78139346 93.0625595 409.38506422 91.41874409 407.99414349 C89.63708529 405.88854673 89.40794357 404.06421965 89.04374409 401.36914349 C88.38374409 401.36914349 87.72374409 401.36914349 87.04374409 401.36914349 C86.38374409 399.38914349 85.72374409 397.40914349 85.04374409 395.36914349 C84.38374409 395.36914349 83.72374409 395.36914349 83.04374409 395.36914349 C81.58311558 392.72175432 81.04374409 391.47466014 81.04374409 388.36914349 C80.38374409 388.36914349 79.72374409 388.36914349 79.04374409 388.36914349 C78.20260238 386.9361985 77.37108722 385.49759943 76.54374409 384.05664349 C76.07968159 383.25613567 75.61561909 382.45562786 75.13749409 381.63086224 C74.04374409 379.36914349 74.04374409 379.36914349 74.04374409 376.36914349 C73.38374409 376.36914349 72.72374409 376.36914349 72.04374409 376.36914349 C71.38374409 373.72914349 70.72374409 371.08914349 70.04374409 368.36914349 C69.38374409 368.36914349 68.72374409 368.36914349 68.04374409 368.36914349 C67.05374409 363.41914349 67.05374409 363.41914349 66.04374409 358.36914349 C65.38374409 358.36914349 64.72374409 358.36914349 64.04374409 358.36914349 C62.62115597 354.54593791 61.80332133 351.45633044 62.04374409 347.36914349 C61.38374409 347.36914349 60.72374409 347.36914349 60.04374409 347.36914349 C58.90610058 343.10298032 58.04374409 339.80428038 58.04374409 335.36914349 C57.38374409 335.36914349 56.72374409 335.36914349 56.04374409 335.36914349 C54.85285423 329.98887324 53.75179218 324.91622965 54.04374409 319.36914349 C53.38374409 319.36914349 52.72374409 319.36914349 52.04374409 319.36914349 C51.54874409 311.94414349 51.54874409 311.94414349 51.04374409 304.36914349 C50.38374409 304.36914349 49.72374409 304.36914349 49.04374409 304.36914349 C47.76357118 294.15397299 47.90964381 283.94283616 47.9302187 273.66919231 C47.93050115 271.68729943 47.93034169 269.70540643 47.92977619 267.7235136 C47.9294905 262.37102064 47.93535035 257.01855032 47.94235015 251.66606259 C47.94862167 246.06201974 47.94919049 240.4579763 47.95037556 234.85393047 C47.9534777 224.25429282 47.96167599 213.65466553 47.97172505 203.05503243 C47.98501634 188.72296562 47.99039512 174.39089596 47.99622726 160.05882454 C48.00561666 137.49558976 48.02554304 114.93237686 48.04374409 92.36914349 C13.39374409 92.36914349 -21.25625591 92.36914349 -56.95625591 92.36914349 C-56.95625591 43.14187076 -56.95625591 43.14187076 -53.33125591 32.43164349 C-53.07086529 31.65949505 -52.81047466 30.88734661 -52.54219341 30.09179974 C-52.34883404 29.52332317 -52.15547466 28.95484661 -51.95625591 28.36914349 C-51.29625591 28.36914349 -50.63625591 28.36914349 -49.95625591 28.36914349 C-49.70875591 27.48226849 -49.46125591 26.59539349 -49.20625591 25.68164349 C-47.90660966 22.23758093 -46.46896364 20.03889545 -43.95625591 17.36914349 C-43.29625591 17.36914349 -42.63625591 17.36914349 -41.95625591 17.36914349 C-41.29625591 16.04914349 -40.63625591 14.72914349 -39.95625591 13.36914349 C-39.29625591 13.36914349 -38.63625591 13.36914349 -37.95625591 13.36914349 C-37.62625591 12.37914349 -37.29625591 11.38914349 -36.95625591 10.36914349 C-34.89375591 9.68164349 -34.89375591 9.68164349 -32.95625591 9.36914349 C-32.95625591 8.70914349 -32.95625591 8.04914349 -32.95625591 7.36914349 C-30.64625591 6.70914349 -28.33625591 6.04914349 -25.95625591 5.36914349 C-25.95625591 4.70914349 -25.95625591 4.04914349 -25.95625591 3.36914349 C-17.25374813 0.39214347 -9.13161873 -0.05428315 0 0 Z " fill="#EC2837" transform="translate(1056.9562559127808,21.63085651397705)"/>
<path d="M0 0 C2.09498364 -0.00407566 4.18996513 -0.00942306 6.28494263 -0.01593018 C11.9282525 -0.02950069 17.57139612 -0.02434537 23.21470857 -0.01479292 C29.16330005 -0.00713163 35.11187846 -0.01426074 41.06047058 -0.01895142 C51.05742917 -0.02439496 61.05432109 -0.01725915 71.05126953 -0.00292969 C82.53626665 0.01334481 94.02110352 0.00814048 105.50609666 -0.0084089 C115.42782784 -0.02212302 125.34951138 -0.02389398 135.271249 -0.0160929 C141.16957093 -0.01146408 147.06781818 -0.01065591 152.96613503 -0.02070236 C200.53774688 -0.09101972 200.53774688 -0.09101972 223.59448242 3.38818359 C223.59448242 4.04818359 223.59448242 4.70818359 223.59448242 5.38818359 C224.87323242 5.45005859 226.15198242 5.51193359 227.46948242 5.57568359 C235.73273161 6.36379696 243.66434765 9.04715252 251.59448242 11.38818359 C251.59448242 12.04818359 251.59448242 12.70818359 251.59448242 13.38818359 C254.89448242 14.04818359 258.19448242 14.70818359 261.59448242 15.38818359 C261.59448242 16.04818359 261.59448242 16.70818359 261.59448242 17.38818359 C265.55448242 18.37818359 265.55448242 18.37818359 269.59448242 19.38818359 C269.59448242 20.04818359 269.59448242 20.70818359 269.59448242 21.38818359 C271.57448242 21.71818359 273.55448242 22.04818359 275.59448242 22.38818359 C275.59448242 23.04818359 275.59448242 23.70818359 275.59448242 24.38818359 C276.54323242 24.57380859 277.49198242 24.75943359 278.46948242 24.95068359 C283.08966881 26.23302104 286.56107185 28.99211141 290.36010742 31.82958984 C292.59600714 33.54613268 292.59600714 33.54613268 295.59448242 34.38818359 C296.61467816 35.3675715 297.61598047 36.36713808 298.59448242 37.38818359 C299.25448242 37.71818359 299.91448242 38.04818359 300.59448242 38.38818359 C300.59448242 39.04818359 300.59448242 39.70818359 300.59448242 40.38818359 C301.52260742 40.65630859 302.45073242 40.92443359 303.40698242 41.20068359 C306.51718524 42.3593866 307.48385698 43.00225919 309.59448242 45.38818359 C310.37823242 45.98630859 311.16198242 46.58443359 311.96948242 47.20068359 C314.40067232 49.22667518 316.24344052 51.35448964 318.21166992 53.81787109 C319.72066444 55.53147504 321.33555033 56.93382849 323.09448242 58.38818359 C326.3587642 61.08965817 328.87966621 64.13040414 331.59448242 67.38818359 C332.76358447 68.43003644 333.95208716 69.45044145 335.15698242 70.45068359 C338.04219343 72.85082638 340.43966743 75.28525001 342.59448242 78.38818359 C342.59448242 79.04818359 342.59448242 79.70818359 342.59448242 80.38818359 C343.25448242 80.38818359 343.91448242 80.38818359 344.59448242 80.38818359 C346.39274687 82.64633207 348.06916252 84.90096099 349.71948242 87.26318359 C350.18741211 87.91416016 350.6553418 88.56513672 351.13745117 89.23583984 C354.59448242 94.12406187 354.59448242 94.12406187 354.59448242 96.38818359 C355.25448242 96.38818359 355.91448242 96.38818359 356.59448242 96.38818359 C357.91583213 98.61250577 359.22659448 100.84201978 360.53198242 103.07568359 C360.90516602 103.70152344 361.27834961 104.32736328 361.6628418 104.97216797 C363.67389453 108.43262808 365.10723907 111.34329036 365.59448242 115.38818359 C366.25448242 115.38818359 366.91448242 115.38818359 367.59448242 115.38818359 C368.25448242 118.02818359 368.91448242 120.66818359 369.59448242 123.38818359 C370.25448242 123.38818359 370.91448242 123.38818359 371.59448242 123.38818359 C372.25448242 126.68818359 372.91448242 129.98818359 373.59448242 133.38818359 C374.25448242 133.38818359 374.91448242 133.38818359 375.59448242 133.38818359 C376.73212593 137.65434676 377.59448242 140.9530467 377.59448242 145.38818359 C378.25448242 145.38818359 378.91448242 145.38818359 379.59448242 145.38818359 C379.79944336 146.53158203 380.0044043 147.67498047 380.21557617 148.85302734 C380.48750553 150.34395036 380.75965216 151.83483376 381.03198242 153.32568359 C381.16668945 154.08042969 381.30139648 154.83517578 381.44018555 155.61279297 C381.83720276 159.30771533 381.83720276 159.30771533 383.59448242 162.38818359 C386.23480366 176.78869484 385.85362604 191.40762119 385.78979492 205.98583984 C385.78605669 208.51744982 385.78321356 211.04906126 385.78121948 213.58067322 C385.77441679 219.51585722 385.75872605 225.45097361 385.7385205 231.38612312 C385.71598677 238.15542255 385.70512464 244.92472603 385.69512963 251.69405377 C385.67435331 265.59214635 385.63774843 279.49014376 385.59448242 293.38818359 C373.38448242 293.38818359 361.17448242 293.38818359 348.59448242 293.38818359 C350.57448242 296.35818359 352.55448242 299.32818359 354.59448242 302.38818359 C354.59448242 303.04818359 354.59448242 303.70818359 354.59448242 304.38818359 C355.25448242 304.38818359 355.91448242 304.38818359 356.59448242 304.38818359 C365.59448242 319.72151693 365.59448242 319.72151693 365.59448242 323.38818359 C366.25448242 323.38818359 366.91448242 323.38818359 367.59448242 323.38818359 C368.25448242 326.02818359 368.91448242 328.66818359 369.59448242 331.38818359 C370.25448242 331.38818359 370.91448242 331.38818359 371.59448242 331.38818359 C371.77624023 332.01724609 371.95799805 332.64630859 372.14526367 333.29443359 C373.53632247 338.03116714 375.02689595 342.67577231 376.79931641 347.28271484 C379.41936778 354.22017971 381.31923217 361.10688228 382.71948242 368.38818359 C382.88834961 369.22607422 383.0572168 370.06396484 383.23120117 370.92724609 C385.0712215 380.28671956 385.74112999 389.35226925 385.70800781 398.87475586 C385.70815384 399.98797714 385.70829987 401.10119843 385.70845032 402.24815369 C385.70775781 405.90031941 385.69999658 409.55243311 385.69213867 413.20458984 C385.69027214 415.7476346 385.68884935 418.29067973 385.68785095 420.83372498 C385.68443266 426.82581721 385.67656412 432.81788738 385.66650146 438.8099708 C385.65528761 445.63713289 385.64981664 452.4642959 385.64480603 459.29146492 C385.63437993 473.32371466 385.6168135 487.35594811 385.59448242 501.38818359 C338.98581092 501.43399832 292.37714182 501.46922173 245.76845223 501.49031425 C240.26124351 501.49281556 234.75403483 501.49540421 229.24682617 501.49804688 C228.1504769 501.4985715 227.05412763 501.49909612 225.92455566 501.49963664 C208.1912092 501.50833046 190.45787576 501.5240948 172.72453701 501.54248919 C154.51770077 501.56121669 136.31087132 501.57230634 118.10402584 501.57636058 C106.87667574 501.57909973 95.64936243 501.58773959 84.42202365 501.60401653 C76.71468548 501.61461861 69.00736622 501.61777694 61.30002129 501.61518635 C56.85862952 501.61391007 52.41730189 501.61581529 47.97592163 501.62659454 C43.89918569 501.63641586 39.82255627 501.63676171 35.74581516 501.62998138 C34.28120424 501.62914492 32.81658633 501.63160623 31.35198891 501.63794996 C21.26785821 501.67904141 11.55135657 500.84063298 1.59448242 499.38818359 C1.59448242 498.72818359 1.59448242 498.06818359 1.59448242 497.38818359 C0.91901367 497.32759766 0.24354492 497.26701172 -0.45239258 497.20458984 C-1.34442383 497.12080078 -2.23645508 497.03701172 -3.15551758 496.95068359 C-4.03723633 496.86947266 -4.91895508 496.78826172 -5.82739258 496.70458984 C-8.0990221 496.42579895 -10.20403581 496.00027782 -12.40551758 495.38818359 C-12.40551758 494.72818359 -12.40551758 494.06818359 -12.40551758 493.38818359 C-15.70551758 492.72818359 -19.00551758 492.06818359 -22.40551758 491.38818359 C-22.40551758 490.72818359 -22.40551758 490.06818359 -22.40551758 489.38818359 C-23.35426758 489.24380859 -24.30301758 489.09943359 -25.28051758 488.95068359 C-28.40551758 488.38818359 -28.40551758 488.38818359 -30.40551758 487.38818359 C-30.40551758 486.72818359 -30.40551758 486.06818359 -30.40551758 485.38818359 C-31.12352539 485.29537109 -31.8415332 485.20255859 -32.58129883 485.10693359 C-35.88007142 484.26741194 -37.86306964 482.90363684 -40.59301758 480.88818359 C-43.87802226 478.4386578 -43.87802226 478.4386578 -47.40551758 476.38818359 C-47.40551758 475.72818359 -47.40551758 475.06818359 -47.40551758 474.38818359 C-48.16864258 474.12005859 -48.93176758 473.85193359 -49.71801758 473.57568359 C-52.41547351 472.38378446 -53.44490785 471.5056421 -55.40551758 469.38818359 C-56.39551758 468.58380859 -57.38551758 467.77943359 -58.40551758 466.95068359 C-60.87084394 464.84488399 -62.70985257 463.12008833 -64.40551758 460.38818359 C-64.40551758 459.72818359 -64.40551758 459.06818359 -64.40551758 458.38818359 C-65.39551758 458.05818359 -66.38551758 457.72818359 -67.40551758 457.38818359 C-68.72192383 455.79443359 -68.72192383 455.79443359 -69.96801758 453.88818359 C-71.72171152 451.13281765 -71.72171152 451.13281765 -74.40551758 449.38818359 C-75.80265152 447.07568603 -77.11320062 444.75816148 -78.40551758 442.38818359 C-78.85797852 441.59798828 -79.31043945 440.80779297 -79.77661133 439.99365234 C-80.23165039 439.19572266 -80.68668945 438.39779297 -81.15551758 437.57568359 C-81.58348633 436.82673828 -82.01145508 436.07779297 -82.45239258 435.30615234 C-83.40551758 433.38818359 -83.40551758 433.38818359 -83.40551758 431.38818359 C-84.06551758 431.38818359 -84.72551758 431.38818359 -85.40551758 431.38818359 C-86.06551758 428.41818359 -86.72551758 425.44818359 -87.40551758 422.38818359 C-88.06551758 422.38818359 -88.72551758 422.38818359 -89.40551758 422.38818359 C-90.54316109 418.12202043 -91.40551758 414.82332048 -91.40551758 410.38818359 C-92.06551758 410.38818359 -92.72551758 410.38818359 -93.40551758 410.38818359 C-96.7529498 394.45175179 -96.84040514 378.65199761 -96.79769158 362.43360877 C-96.7908198 358.56312017 -96.8014218 354.69266994 -96.80963135 350.82218933 C-96.82288387 343.26714442 -96.82012958 335.71218955 -96.81139342 328.1571413 C-96.80458559 322.01259797 -96.80371346 315.86807966 -96.80696487 309.72353363 C-96.80742457 308.84509855 -96.80788427 307.96666346 -96.8083579 307.06160913 C-96.80931718 305.27648124 -96.81028983 303.49135336 -96.81127568 301.70622548 C-96.81980418 285.01775087 -96.81003443 268.32932592 -96.79387458 251.64085945 C-96.78046431 237.34974087 -96.78281026 223.0586954 -96.79663086 208.76757812 C-96.8127155 192.12780232 -96.81899029 175.48806984 -96.80979407 158.84828734 C-96.80883852 157.07138173 -96.80789541 155.29447612 -96.80696487 153.5175705 C-96.80650205 152.64353477 -96.80603922 151.76949904 -96.80556237 150.86897738 C-96.80298182 144.73627221 -96.80732301 138.60359474 -96.81440353 132.47089386 C-96.82285046 124.99115759 -96.82047129 117.51151568 -96.8045613 110.03179011 C-96.79672275 106.22224576 -96.79351086 102.41285825 -96.80350876 98.60331535 C-96.81421688 94.4602832 -96.80135965 90.31764086 -96.78646851 86.17462158 C-96.79316067 84.99006197 -96.79985284 83.80550236 -96.80674779 82.58504701 C-96.74628563 73.85681891 -95.3547378 65.86772135 -93.40551758 57.38818359 C-92.74551758 57.38818359 -92.08551758 57.38818359 -91.40551758 57.38818359 C-91.26114258 56.46005859 -91.11676758 55.53193359 -90.96801758 54.57568359 C-90.40551758 51.38818359 -90.40551758 51.38818359 -89.40551758 48.38818359 C-88.74551758 48.38818359 -88.08551758 48.38818359 -87.40551758 48.38818359 C-87.33848633 47.53353516 -87.27145508 46.67888672 -87.20239258 45.79833984 C-86.23922132 41.67653343 -84.27244523 39.03633616 -81.65551758 35.82568359 C-81.2249707 35.27460937 -80.79442383 34.72353516 -80.35083008 34.15576172 C-76.40512129 29.17637174 -71.96704418 24.79193738 -67.21801758 20.57568359 C-66.54383789 19.97111328 -65.8696582 19.36654297 -65.17504883 18.74365234 C-63.40551758 17.38818359 -63.40551758 17.38818359 -61.40551758 17.38818359 C-61.40551758 16.72818359 -61.40551758 16.06818359 -61.40551758 15.38818359 C-59.42551758 14.72818359 -57.44551758 14.06818359 -55.40551758 13.38818359 C-55.40551758 12.72818359 -55.40551758 12.06818359 -55.40551758 11.38818359 C-53.09551758 10.72818359 -50.78551758 10.06818359 -48.40551758 9.38818359 C-48.40551758 8.72818359 -48.40551758 8.06818359 -48.40551758 7.38818359 C-45.10551758 6.72818359 -41.80551758 6.06818359 -38.40551758 5.38818359 C-38.40551758 4.72818359 -38.40551758 4.06818359 -38.40551758 3.38818359 C-25.51273671 0.59507984 -13.16378735 -0.04353725 0 0 Z M-12.40551758 86.38818359 C-12.40551758 126.31818359 -12.40551758 166.24818359 -12.40551758 207.38818359 C91.21448242 207.38818359 194.83448242 207.38818359 301.59448242 207.38818359 C300.2603457 184.53962745 300.2603457 184.53962745 294.59448242 163.38818359 C294.19358398 162.31568359 293.79268555 161.24318359 293.37963867 160.13818359 C292.49295819 157.86626208 291.57616525 155.62027808 290.59448242 153.38818359 C289.93448242 153.38818359 289.27448242 153.38818359 288.59448242 153.38818359 C288.50166992 152.39818359 288.50166992 152.39818359 288.40698242 151.38818359 C287.29069748 147.2665161 285.25686676 143.73067858 282.59448242 140.38818359 C281.93448242 140.38818359 281.27448242 140.38818359 280.59448242 140.38818359 C280.25416992 139.05787109 280.25416992 139.05787109 279.90698242 137.70068359 C278.41058396 133.9240589 276.66956506 132.00200383 273.59448242 129.38818359 C272.93448242 129.38818359 272.27448242 129.38818359 271.59448242 129.38818359 C270.93448242 128.06818359 270.27448242 126.74818359 269.59448242 125.38818359 C268.93448242 125.38818359 268.27448242 125.38818359 267.59448242 125.38818359 C266.93448242 124.06818359 266.27448242 122.74818359 265.59448242 121.38818359 C264.93448242 121.38818359 264.27448242 121.38818359 263.59448242 121.38818359 C262.93448242 120.06818359 262.27448242 118.74818359 261.59448242 117.38818359 C260.93448242 117.38818359 260.27448242 117.38818359 259.59448242 117.38818359 C259.26448242 116.39818359 258.93448242 115.40818359 258.59448242 114.38818359 C256.2429356 112.22730273 254.47255603 110.607702 251.34448242 109.82568359 C250.47823242 109.60912109 250.47823242 109.60912109 249.59448242 109.38818359 C249.26448242 108.39818359 248.93448242 107.40818359 248.59448242 106.38818359 C244.53197438 103.17898416 244.53197438 103.17898416 239.59448242 102.38818359 C239.59448242 101.72818359 239.59448242 101.06818359 239.59448242 100.38818359 C236.94709326 98.92755509 235.69999908 98.38818359 232.59448242 98.38818359 C232.59448242 97.72818359 232.59448242 97.06818359 232.59448242 96.38818359 C229.86859409 95.3783727 227.13935978 94.38015052 224.40698242 93.38818359 C223.63805664 93.10201172 222.86913086 92.81583984 222.0769043 92.52099609 C218.13625885 91.10033422 214.85296561 89.97854994 210.59448242 90.38818359 C210.59448242 89.72818359 210.59448242 89.06818359 210.59448242 88.38818359 C199.32378197 86.09838652 188.29186011 86.11710747 176.84130859 86.16113281 C174.77045192 86.1616979 172.69959485 86.16137846 170.6287384 86.1602478 C165.04287385 86.1596771 159.45709627 86.17138547 153.87125182 86.18539572 C148.02031766 86.19795038 142.16938122 86.1990773 136.31843567 86.20144653 C125.25490132 86.20764743 114.19140679 86.22403936 103.12788993 86.24414551 C88.16640781 86.27074181 73.2049147 86.28148839 58.24341488 86.29314995 C34.69374094 86.311921 11.144151 86.35177596 -12.40551758 86.38818359 Z M-12.40551758 293.38818359 C-12.40551758 321.76818359 -12.40551758 350.14818359 -12.40551758 379.38818359 C-11.74551758 379.38818359 -11.08551758 379.38818359 -10.40551758 379.38818359 C-10.34493164 380.07525391 -10.2843457 380.76232422 -10.22192383 381.47021484 C-10.13813477 382.37126953 -10.0543457 383.27232422 -9.96801758 384.20068359 C-9.88680664 385.09400391 -9.8055957 385.98732422 -9.72192383 386.90771484 C-9.47061991 389.51561918 -9.47061991 389.51561918 -8.40551758 392.38818359 C-7.74551758 392.38818359 -7.08551758 392.38818359 -6.40551758 392.38818359 C-6.34364258 393.06880859 -6.28176758 393.74943359 -6.21801758 394.45068359 C-4.16364447 401.87803252 0.95353133 405.73388219 6.99682617 410.00537109 C9.88982229 411.54540211 12.35525652 412.02041122 15.59448242 412.38818359 C15.59448242 413.04818359 15.59448242 413.70818359 15.59448242 414.38818359 C18.63142597 415.27078819 21.33275671 415.51263374 24.49077225 415.51123142 C25.97619487 415.514218 25.97619487 415.514218 27.49162602 415.5172649 C28.57722208 415.51435206 29.66281813 415.51143922 30.78131104 415.50843811 C31.9362905 415.50929254 33.09126997 415.51014696 34.28124881 415.51102728 C37.48747024 415.51239079 40.69365135 415.50926095 43.89986801 415.50424922 C47.35722605 415.49993442 50.81458217 415.50139187 54.27194214 415.50215149 C60.2621836 415.50267607 66.25241417 415.49953613 72.24265289 415.49391365 C80.90355287 415.48578975 89.56444757 415.48318252 98.22535095 415.48192566 C112.27678317 415.47973654 126.3282096 415.47308025 140.37963867 415.46362305 C154.030029 415.45444531 167.68041776 415.44736624 181.33081055 415.44311523 C182.17209241 415.44285251 183.01337426 415.44258979 183.88014951 415.4423191 C188.10057506 415.44101407 192.32100062 415.43975036 196.54142618 415.4385072 C231.55911573 415.42813895 266.57679854 415.41052444 301.59448242 415.38818359 C301.31543875 411.25062106 301.02073584 407.11431157 300.72338867 402.97802734 C300.60622498 401.23652405 300.60622498 401.23652405 300.48669434 399.45983887 C299.74304372 389.29422459 297.81703568 380.05584336 294.59448242 370.38818359 C293.93448242 370.38818359 293.27448242 370.38818359 292.59448242 370.38818359 C292.45010742 369.46005859 292.30573242 368.53193359 292.15698242 367.57568359 C291.67348131 364.38093249 291.67348131 364.38093249 290.59448242 361.38818359 C289.93448242 361.38818359 289.27448242 361.38818359 288.59448242 361.38818359 C288.43592773 360.28990234 288.43592773 360.28990234 288.27416992 359.16943359 C287.54122702 356.17026493 286.49386288 354.39526842 284.71948242 351.88818359 C283.05181551 349.49561633 281.47398664 347.17611102 280.03198242 344.63818359 C278.21600696 341.79578722 276.09960355 339.63636922 273.59448242 337.38818359 C272.93448242 337.38818359 272.27448242 337.38818359 271.59448242 337.38818359 C270.93448242 336.06818359 270.27448242 334.74818359 269.59448242 333.38818359 C268.93448242 333.38818359 268.27448242 333.38818359 267.59448242 333.38818359 C266.93448242 332.06818359 266.27448242 330.74818359 265.59448242 329.38818359 C264.93448242 329.38818359 264.27448242 329.38818359 263.59448242 329.38818359 C262.93448242 328.06818359 262.27448242 326.74818359 261.59448242 325.38818359 C260.93448242 325.38818359 260.27448242 325.38818359 259.59448242 325.38818359 C259.26448242 324.39818359 258.93448242 323.40818359 258.59448242 322.38818359 C257.93448242 322.38818359 257.27448242 322.38818359 256.59448242 322.38818359 C255.93448242 321.06818359 255.27448242 319.74818359 254.59448242 318.38818359 C253.93448242 318.38818359 253.27448242 318.38818359 252.59448242 318.38818359 C251.93448242 317.06818359 251.27448242 315.74818359 250.59448242 314.38818359 C249.93448242 314.38818359 249.27448242 314.38818359 248.59448242 314.38818359 C247.93448242 313.06818359 247.27448242 311.74818359 246.59448242 310.38818359 C245.93448242 310.38818359 245.27448242 310.38818359 244.59448242 310.38818359 C243.93448242 309.06818359 243.27448242 307.74818359 242.59448242 306.38818359 C241.93448242 306.38818359 241.27448242 306.38818359 240.59448242 306.38818359 C239.60448242 304.40818359 239.60448242 304.40818359 238.59448242 302.38818359 C237.93448242 302.38818359 237.27448242 302.38818359 236.59448242 302.38818359 C235.60448242 300.40818359 235.60448242 300.40818359 234.59448242 298.38818359 C233.93448242 298.38818359 233.27448242 298.38818359 232.59448242 298.38818359 C232.28510742 297.74880859 231.97573242 297.10943359 231.65698242 296.45068359 C230.75996612 294.45207538 230.75996612 294.45207538 229.59448242 293.38818359 C226.48471529 293.29012982 223.39714101 293.25827801 220.28697205 293.26792908 C218.8033609 293.26664744 218.8033609 293.26664744 217.28977782 293.26533991 C213.94853835 293.26368211 210.60734819 293.26921136 207.26611328 293.2746582 C204.88175966 293.27494004 202.49740594 293.27478242 200.11305237 293.2742157 C194.29316563 293.27395754 188.47329526 293.27830888 182.65341228 293.28465336 C175.88393107 293.29178728 169.11445223 293.29329725 162.34496779 293.29444153 C150.27180449 293.29663237 138.19864792 293.30329333 126.12548828 293.31274414 C114.39469435 293.32191742 102.66390226 293.32899867 90.93310547 293.33325195 C90.21051526 293.33351468 89.48792506 293.3337774 88.74343818 293.33404808 C85.11856358 293.33535308 81.49368897 293.3366168 77.86881435 293.33785999 C47.77736448 293.34823361 17.68592698 293.36667245 -12.40551758 293.38818359 Z " fill="#00008B" transform="translate(103.405517578125,21.61181640625)"/>
<path d="M0 0 C1.66296203 -0.00483667 1.66296203 -0.00483667 3.35951924 -0.00977105 C4.57224657 -0.00822245 5.78497389 -0.00667385 7.03445053 -0.00507832 C8.32685866 -0.00734387 9.61926679 -0.00960943 10.9508388 -0.01194364 C14.53647184 -0.0180614 18.12208155 -0.01792807 21.70771861 -0.01674926 C25.57559999 -0.01654525 29.44347388 -0.02206413 33.31135178 -0.02680683 C40.88900117 -0.03511406 48.46664279 -0.03786171 56.04429635 -0.03841921 C62.20447532 -0.03889438 68.36465171 -0.04094919 74.52482986 -0.04411983 C91.99169596 -0.05292698 109.45855591 -0.05753917 126.92542425 -0.05678936 C128.33795335 -0.05672943 128.33795335 -0.05672943 129.7790184 -0.05666828 C131.19327327 -0.05660696 131.19327327 -0.05660696 132.63609895 -0.0565444 C147.91334686 -0.05613802 163.19057012 -0.06570536 178.4678109 -0.07980665 C194.15597656 -0.09417289 209.84413021 -0.10107668 225.53230262 -0.10021287 C234.33932648 -0.09988096 243.1463245 -0.10262525 251.95334244 -0.11339092 C259.45259696 -0.12249923 266.95181393 -0.12466849 274.45107159 -0.1178815 C278.27595088 -0.11461783 282.10075814 -0.11455405 285.92563057 -0.12323475 C290.07580925 -0.13255669 294.22582132 -0.12631963 298.37600327 -0.11860371 C299.5798077 -0.12374727 300.78361214 -0.12889083 302.0238955 -0.13419026 C311.91263649 -0.09355276 319.73265603 1.36870455 328.45919418 6.12863445 C328.45919418 6.78863445 328.45919418 7.44863445 328.45919418 8.12863445 C330.10919418 8.78863445 331.75919418 9.44863445 333.45919418 10.12863445 C333.45919418 10.78863445 333.45919418 11.44863445 333.45919418 12.12863445 C335.43919418 13.11863445 335.43919418 13.11863445 337.45919418 14.12863445 C337.45919418 14.78863445 337.45919418 15.44863445 337.45919418 16.12863445 C339.43919418 17.11863445 339.43919418 17.11863445 341.45919418 18.12863445 C341.45919418 19.11863445 341.45919418 20.10863445 341.45919418 21.12863445 C342.44919418 21.45863445 343.43919418 21.78863445 344.45919418 22.12863445 C344.78919418 24.10863445 345.11919418 26.08863445 345.45919418 28.12863445 C346.11919418 28.12863445 346.77919418 28.12863445 347.45919418 28.12863445 C349.9853391 36.87850411 349.73846457 45.57006243 349.71316147 54.58871746 C349.71546747 56.37611057 349.71864494 58.16350274 349.72261596 59.95089293 C349.73095336 64.85009061 349.72684345 69.74921023 349.72064352 74.64840817 C349.71611574 79.93682044 349.72310442 85.22521935 349.72860336 90.51362896 C349.7374955 100.86873185 349.73557614 111.22380573 349.72977808 121.57890975 C349.7252609 129.99490622 349.72464893 138.41089457 349.72682571 146.8268919 C349.72713218 148.0248054 349.72743865 149.2227189 349.7277544 150.45693281 C349.72839385 152.89048843 349.72904228 155.32404404 349.72969958 157.75759965 C349.73540235 180.57581792 349.72884581 203.39402012 349.71809885 226.21223575 C349.70916339 245.79033373 349.71071545 265.36840799 349.71993637 284.94650555 C349.73063993 307.68320815 349.73485303 330.41989666 349.72871184 353.15660143 C349.72807475 355.58119329 349.72744601 358.00578515 349.72682571 360.43037701 C349.72651716 361.62331545 349.72620861 362.8162539 349.72589071 364.045342 C349.72416403 372.45100367 349.7270783 380.85665641 349.73178482 389.2623167 C349.73739459 399.50630933 349.73587514 409.75027131 349.72522333 419.99426043 C349.71996795 425.2206428 349.71790765 430.44697407 349.72452164 435.67335606 C349.73048589 440.45869731 349.72719804 445.24394015 349.71656653 450.0292725 C349.71433454 451.75929922 349.71546429 453.48933428 349.72031811 455.21935564 C349.74153878 463.41211278 349.75273694 471.18443454 347.45919418 479.12863445 C346.79919418 479.12863445 346.13919418 479.12863445 345.45919418 479.12863445 C345.11888168 480.95394695 345.11888168 480.95394695 344.77169418 482.81613445 C343.6890458 487.15435228 341.83245465 489.14761358 338.45919418 492.12863445 C337.63456267 493.18174668 336.82216201 494.24454043 336.02169418 495.31613445 C333.23966739 498.3695785 331.42662945 499.20597509 327.45919418 500.12863445 C327.45919418 500.78863445 327.45919418 501.44863445 327.45919418 502.12863445 C325.42042469 502.94837708 323.37803343 503.75911515 321.33419418 504.56613445 C320.19724106 505.01859539 319.06028793 505.47105633 317.88888168 505.9372282 C301.13126332 511.75849654 278.15275917 508.12863445 263.45919418 508.12863445 C263.45919418 368.86863445 263.45919418 229.60863445 263.45919418 86.12863445 C187.88919418 86.45863445 112.31919418 86.78863445 34.45919418 87.12863445 C34.47079575 117.43578289 34.48239731 147.74293133 34.49435043 178.9684782 C34.49945658 198.10454597 34.50431763 217.24061332 34.50802231 236.37668133 C34.50998033 246.42347496 34.51200085 256.47026858 34.51412582 266.51706219 C34.51438957 267.77635113 34.51465332 269.03564008 34.51492506 270.33308929 C34.5192803 290.69197869 34.52716737 311.05086528 34.53634698 331.40975302 C34.54568203 352.28673677 34.55124948 373.16371904 34.55328268 394.04070479 C34.55465821 406.93407437 34.55901046 419.82743601 34.56711065 432.72080315 C34.57237628 441.54935145 34.5739989 450.37789563 34.57269556 459.20644539 C34.57205189 464.30822103 34.57307291 469.40998275 34.57839966 474.51175594 C34.58323252 479.1742646 34.58353358 483.83674985 34.58009308 488.49925954 C34.57966727 490.19374843 34.58096395 491.88823872 34.58407737 493.5827248 C34.58803956 495.87060959 34.58595871 498.15840777 34.58224201 500.44629097 C34.58262173 501.72177156 34.58300145 502.99725215 34.58339268 504.31138366 C34.45919418 507.12863445 34.45919418 507.12863445 33.45919418 508.12863445 C30.33979421 508.24254405 27.24344607 508.29284041 24.12325668 508.2966032 C22.69957275 508.3015958 22.69957275 508.3015958 21.24712753 508.30668926 C19.22781485 508.31176717 17.20849372 508.31409732 15.18917465 508.31393719 C12.13189925 508.31610069 9.07499828 508.33418268 6.01778793 508.35324383 C4.05294541 508.35618236 2.08810118 508.35816407 0.12325668 508.3591032 C-0.77927841 508.36628872 -1.68181351 508.37347424 -2.61169815 508.38087749 C-9.10068251 508.35810952 -15.19653831 507.46972509 -21.54080582 506.12863445 C-21.54080582 505.46863445 -21.54080582 504.80863445 -21.54080582 504.12863445 C-22.30393082 503.98425945 -23.06705582 503.83988445 -23.85330582 503.69113445 C-26.54080582 503.12863445 -26.54080582 503.12863445 -29.54080582 502.12863445 C-29.54080582 501.46863445 -29.54080582 500.80863445 -29.54080582 500.12863445 C-30.38643082 499.96363445 -31.23205582 499.79863445 -32.10330582 499.62863445 C-36.80668299 497.57625169 -39.60816252 494.293335 -42.54080582 490.12863445 C-42.54080582 489.46863445 -42.54080582 488.80863445 -42.54080582 488.12863445 C-43.20080582 488.12863445 -43.86080582 488.12863445 -44.54080582 488.12863445 C-46.00143432 485.48124529 -46.54080582 484.23415111 -46.54080582 481.12863445 C-47.20080582 481.12863445 -47.86080582 481.12863445 -48.54080582 481.12863445 C-51.0337069 476.02017853 -51.91657304 472.31162556 -51.92112255 466.53011799 C-51.92578247 465.79367164 -51.93044239 465.05722529 -51.93524352 464.29846239 C-51.94717736 461.8351455 -51.93780452 459.37238181 -51.92848587 456.90906048 C-51.9326595 455.12339136 -51.93813717 453.33772489 -51.94480568 451.55206335 C-51.95927525 446.64832002 -51.95501081 441.74474455 -51.94763887 436.84099197 C-51.94291324 431.55117045 -51.95541171 426.26138556 -51.96565628 420.97157574 C-51.98286163 410.60950703 -51.98368067 400.24749891 -51.97844338 389.88541962 C-51.97440359 381.46365065 -51.97584297 373.0418996 -51.98119164 364.62013149 C-51.98194006 363.42194701 -51.98268848 362.22376253 -51.98345958 360.98926943 C-51.98499104 358.55523074 -51.98652939 356.12119206 -51.98807455 353.68715338 C-52.00180593 330.85558551 -51.99635747 308.02405188 -51.98488934 285.19248478 C-51.97495684 264.30239557 -51.98789681 243.41239494 -52.01182353 222.52231939 C-52.03620291 201.07553975 -52.04582522 179.62880137 -52.0391708 158.18200815 C-52.03567593 146.14000681 -52.0379283 134.0980736 -52.05542183 122.05608273 C-52.07012929 111.80469397 -52.07079828 101.55342131 -52.05335092 91.30203487 C-52.0448265 86.07156029 -52.04272664 80.84129322 -52.05800247 75.61082935 C-52.07181649 70.82160707 -52.06712864 66.03277073 -52.04776324 61.24357097 C-52.04399282 59.51213873 -52.04695513 57.78067582 -52.05737489 56.04927082 C-52.10623689 47.30766094 -52.05921021 39.88885632 -47.54080582 32.12863445 C-46.98424482 30.80144931 -46.4417342 29.46825376 -45.91580582 28.12863445 C-44.54080582 25.12863445 -44.54080582 25.12863445 -42.54080582 24.12863445 C-42.21080582 23.13863445 -41.88080582 22.14863445 -41.54080582 21.12863445 C-39.10330582 18.44113445 -39.10330582 18.44113445 -36.54080582 16.12863445 C-35.88080582 16.12863445 -35.22080582 16.12863445 -34.54080582 16.12863445 C-34.21080582 15.13863445 -33.88080582 14.14863445 -33.54080582 13.12863445 C-25.15926456 5.0174655 -11.53379441 0.00849691 0 0 Z " fill="#00008B" transform="translate(617.5408058166504,18.871365547180176)"/>
<path d="M0 0 C30.69 0 61.38 0 93 0 C93 4.62 93 9.24 93 14 C93.66 14 94.32 14 95 14 C95.33772739 16.70784994 95.67030687 19.41616996 96 22.125 C96.09539062 22.88554687 96.19078125 23.64609375 96.2890625 24.4296875 C96.79830188 28.64909952 97.10888068 32.74004344 97 37 C97.66 37 98.32 37 99 37 C99.99 42.94 99.99 42.94 101 49 C101.66 49 102.32 49 103 49 C103.21914062 49.65484375 103.43828125 50.3096875 103.6640625 50.984375 C105.91639122 57.46668694 108.63671487 63.49166766 111.828125 69.56640625 C113 72 113 72 113 74 C113.66 74 114.32 74 115 74 C115.39703125 74.85851562 115.7940625 75.71703125 116.203125 76.6015625 C118.07858098 80.14862054 120.2770192 83.23701202 122.75 86.375 C123.18812012 86.93936768 123.62624023 87.50373535 124.07763672 88.08520508 C127.1708339 92.03787484 130.4024062 95.83392557 133.8203125 99.51171875 C135 101 135 101 135 103 C135.58523438 103.26683594 136.17046875 103.53367187 136.7734375 103.80859375 C139.03620373 105.01937217 140.71883571 106.3536699 142.625 108.0625 C144.4181258 109.66378483 145.84656316 110.92328158 148 112 C148 112.66 148 113.32 148 114 C148.969375 114.28875 149.93875 114.5775 150.9375 114.875 C154 116 154 116 155 118 C156.64363134 118.72159424 158.31050386 119.39351421 160 120 C160 120.66 160 121.32 160 122 C162.31 122.66 164.62 123.32 167 124 C167 124.66 167 125.32 167 126 C169.97 126.66 172.94 127.32 176 128 C176 128.66 176 129.32 176 130 C177.485 130.1546875 177.485 130.1546875 179 130.3125 C182.43781159 130.79872435 185.41650368 131.89906709 188.6484375 133.171875 C203.28127916 138.32496874 218.5459277 138.14317049 233.8465023 138.19923019 C236.81983595 138.21117089 239.79303397 138.23065514 242.76631165 138.25234985 C251.21110509 138.31349515 259.6558768 138.36806106 268.10083008 138.40136719 C273.28895881 138.42236647 278.47682581 138.4576939 283.66480446 138.50212479 C285.63063282 138.51622248 287.59650732 138.52499304 289.56238365 138.52817917 C292.31359535 138.53311501 295.06411563 138.55633585 297.81518555 138.58349609 C299.01474632 138.57898689 299.01474632 138.57898689 300.23854065 138.5743866 C305.2056978 138.64681896 309.30585072 139.52520824 313.96352863 141.26073647 C315.95761309 141.98461304 317.93509198 142.52032153 320 143 C320 143.66 320 144.32 320 145 C320.763125 145.144375 321.52625 145.28875 322.3125 145.4375 C326.25893368 146.26349775 328.25192531 147.1324438 331 150 C331.66 150.33 332.32 150.66 333 151 C333 151.66 333 152.32 333 153 C334.1446875 153.3403125 334.1446875 153.3403125 335.3125 153.6875 C338.59716118 155.29163685 339.29918141 156.83029262 341 160 C341.556875 160.556875 342.11375 161.11375 342.6875 161.6875 C343.120625 162.120625 343.55375 162.55375 344 163 C344 163.66 344 164.32 344 165 C344.66 165 345.32 165 346 165 C347.4606285 167.64738916 348 168.89448334 348 172 C348.66 172 349.32 172 350 172 C350.20496094 172.71027344 350.40992188 173.42054688 350.62109375 174.15234375 C350.89050781 175.07144531 351.15992188 175.99054688 351.4375 176.9375 C351.83775391 178.31228516 351.83775391 178.31228516 352.24609375 179.71484375 C352.79026051 181.9402493 352.79026051 181.9402493 354 183 C354.95815041 188.94650258 355.13393331 194.73671487 355.09765625 200.75 C355.09553383 202.09807739 355.09553383 202.09807739 355.09336853 203.47338867 C355.08781583 206.31562775 355.07527237 209.15778513 355.0625 212 C355.05747888 213.93880094 355.05291705 215.87760312 355.04882812 217.81640625 C355.03786194 222.54430183 355.02063044 227.27213711 355 232 C336.2135475 232.04697347 317.42710713 232.08211187 298.64060783 232.10362434 C289.91533302 232.11388384 281.19009496 232.12784064 272.46484375 232.15087891 C264.84915931 232.17097766 257.23350152 232.183755 249.6177913 232.18817699 C245.59511455 232.19075684 241.57251395 232.19670556 237.54986191 232.21146011 C220.27036108 232.27246805 203.18726303 232.0522561 186 230 C186 229.34 186 228.68 186 228 C185.20335937 227.93941406 184.40671875 227.87882813 183.5859375 227.81640625 C173.06151142 226.98418278 173.06151142 226.98418278 168 226 C168 225.34 168 224.68 168 224 C167.40832031 223.93941406 166.81664062 223.87882813 166.20703125 223.81640625 C154.93113482 222.62075655 154.93113482 222.62075655 151 220 C148.67891331 219.29187186 146.34622853 218.61975848 144 218 C144 217.34 144 216.68 144 216 C143.030625 215.9175 142.06125 215.835 141.0625 215.75 C136.32880899 215.1000875 132.26015593 213.07694677 128 211 C128 210.34 128 209.68 128 209 C125.36 208.34 122.72 207.68 120 207 C120 206.34 120 205.68 120 205 C117.69 204.34 115.38 203.68 113 203 C113 202.34 113 201.68 113 201 C111.02 200.34 109.04 199.68 107 199 C107 198.34 107 197.68 107 197 C105.906875 196.731875 104.81375 196.46375 103.6875 196.1875 C100.28994947 195.09337356 99.16411626 194.61971968 97 192 C96.34 191.67 95.68 191.34 95 191 C95 190.34 95 189.68 95 189 C93.68 188.67 92.36 188.34 91 188 C91 187.34 91 186.68 91 186 C89.9171875 185.62875 89.9171875 185.62875 88.8125 185.25 C83.57999612 182.92444272 79.99760873 178.99760873 76 175 C74.71326555 173.89008952 73.42117213 172.78637425 72.125 171.6875 C66.88063226 167.14435657 62.56902589 161.91769831 58.1875 156.5625 C56.26028607 153.96768028 56.26028607 153.96768028 54 153 C53.67 152.01 53.34 151.02 53 150 C52.01 149.01 52.01 149.01 51 148 C49 146 49 146 48 143 C46.54456247 141.41224997 45.01881541 140.01592073 43.375 138.625 C41.5933412 136.51940324 41.36419948 134.69507616 41 132 C40.34 132 39.68 132 39 132 C38.34 130.02 37.68 128.04 37 126 C36.34 126 35.68 126 35 126 C33.5393715 123.35261084 33 122.10551666 33 119 C32.34 119 31.68 119 31 119 C30.15885829 117.56705502 29.32734313 116.12845595 28.5 114.6875 C28.0359375 113.88699219 27.571875 113.08648437 27.09375 112.26171875 C26 110 26 110 26 107 C25.34 107 24.68 107 24 107 C23.34 104.36 22.68 101.72 22 99 C21.34 99 20.68 99 20 99 C19.34 95.7 18.68 92.4 18 89 C17.34 89 16.68 89 16 89 C14.57741188 85.17679443 13.75957724 82.08718695 14 78 C13.34 78 12.68 78 12 78 C10.86235649 73.73383684 10 70.43513689 10 66 C9.34 66 8.68 66 8 66 C6.80911014 60.61972975 5.7080481 55.54708616 6 50 C5.34 50 4.68 50 4 50 C3.505 42.575 3.505 42.575 3 35 C2.34 35 1.68 35 1 35 C-0.05668141 23.37650454 0 11.6714276 0 0 Z " fill="#00008A" transform="translate(1105,291)"/>
<path d="M0 0 C5.61 0 11.22 0 17 0 C21 8.5 21 8.5 21 13 C21.66 13 22.32 13 23 13 C24.19287411 16.87684087 25 19.91621923 25 24 C25.66 24 26.32 24 27 24 C27.19335938 24.71027344 27.38671875 25.42054688 27.5859375 26.15234375 C27.97652344 27.53099609 27.97652344 27.53099609 28.375 28.9375 C28.63023437 29.85402344 28.88546875 30.77054688 29.1484375 31.71484375 C29.76660104 34.16745087 29.76660104 34.16745087 32 35 C32.33 33.02 32.66 31.04 33 29 C33.66 29 34.32 29 35 29 C35.103125 28.154375 35.20625 27.30875 35.3125 26.4375 C36.06883225 22.65583874 37.41260133 19.50550539 39 16 C39.33 15.01 39.66 14.02 40 13 C40.66 13 41.32 13 42 13 C42.66 10.03 43.32 7.06 44 4 C44.66 4 45.32 4 46 4 C46.33 2.68 46.66 1.36 47 0 C51.95 0 56.9 0 62 0 C64.82937338 5.20239621 66.27362901 9.06797023 67 15 C67.99 15.495 67.99 15.495 69 16 C70.3749149 18.90259811 71 20.76138705 71 24 C71.66 24 72.32 24 73 24 C74.19287411 27.87684087 75 30.91621923 75 35 C75.99 35 76.98 35 78 35 C78.33 32.69 78.66 30.38 79 28 C79.66 28 80.32 28 81 28 C81.99 23.545 81.99 23.545 83 19 C83.66 19 84.32 19 85 19 C85.144375 17.9275 85.28875 16.855 85.4375 15.75 C85.83749442 13.08337051 86.27591924 10.58600271 87 8 C87.66 8 88.32 8 89 8 C89.185625 6.576875 89.185625 6.576875 89.375 5.125 C90 2 90 2 92 0 C94.74485593 -0.14507695 97.38480543 -0.18652423 100.125 -0.125 C100.87910156 -0.11597656 101.63320313 -0.10695313 102.41015625 -0.09765625 C104.27357254 -0.0740687 106.13682593 -0.03819719 108 0 C108 1.32 108 2.64 108 4 C107.34 4 106.68 4 106 4 C105.34 6.97 104.68 9.94 104 13 C103.34 13 102.68 13 102 13 C101.855625 14.093125 101.71125 15.18625 101.5625 16.3125 C101 20 101 20 100 23 C99.34 23 98.68 23 98 23 C97.7834375 24.36125 97.7834375 24.36125 97.5625 25.75 C97.13590527 28.21476956 96.64925779 30.58847107 96 33 C95.34 33 94.68 33 94 33 C93.896875 33.845625 93.79375 34.69125 93.6875 35.5625 C92.93144264 39.3427868 91.56231154 42.48479903 90 46 C89.62691369 47.32276056 89.26953585 48.65232077 89 50 C88.34 50 87.68 50 87 50 C86.01 52.97 85.02 55.94 84 59 C81.73020335 59.10794277 79.45894804 59.18556176 77.1875 59.25 C75.29064453 59.31960938 75.29064453 59.31960938 73.35546875 59.390625 C70 59 70 59 68.0859375 57.21484375 C66.62197238 54.22898683 66.43275165 51.27654823 66 48 C65.34 47.67 64.68 47.34 64 47 C60.92356685 40.92380493 58.46510077 34.82147797 58 28 C57.34 28 56.68 28 56 28 C55.34 26.68 54.68 25.36 54 24 C53.34 24 52.68 24 52 24 C51.34 26.97 50.68 29.94 50 33 C49.34 33 48.68 33 48 33 C47.34 35.97 46.68 38.94 46 42 C45.34 42 44.68 42 44 42 C43.896875 42.845625 43.79375 43.69125 43.6875 44.5625 C42.93116775 48.34416126 41.58739867 51.49449461 40 55 C39.67 55.99 39.34 56.98 39 58 C36.04969611 59.47515195 33.34504661 59.28692341 30.0625 59.375 C28.81597656 59.42398438 27.56945312 59.47296875 26.28515625 59.5234375 C23 59 23 59 21.1015625 56.71484375 C19.79021496 53.48297658 19.33931915 50.46105534 19 47 C18.34 47 17.68 47 17 47 C16.82984375 46.45472656 16.6596875 45.90945313 16.484375 45.34765625 C14.67300782 39.71122113 12.45971251 34.37996694 10 29 C8.66114739 25.92063899 8 24.36246468 8 21 C7.34 21 6.68 21 6 21 C4.68373308 17.38026598 4 14.90432869 4 11 C3.34 11 2.68 11 2 11 C0.48940272 6.9402698 0 4.45389333 0 0 Z " fill="#00008B" transform="translate(637,633)"/>
<path d="M0 0 C2.79192205 -0.05380578 5.5828141 -0.09357669 8.375 -0.125 C9.1690625 -0.14175781 9.963125 -0.15851562 10.78125 -0.17578125 C12.85492015 -0.19335473 14.92883241 -0.10335168 17 0 C19.76223278 2.76223278 19.57856291 5.20706617 20 9 C20.66 9 21.32 9 22 9 C23.19287411 12.87684087 24 15.91621923 24 20 C24.66 20 25.32 20 26 20 C26.48212214 21.56159059 26.96055873 23.12431928 27.4375 24.6875 C27.70433594 25.55761719 27.97117187 26.42773438 28.24609375 27.32421875 C28.96344529 29.87025921 29.517541 32.4003423 30 35 C30.99 35 31.98 35 33 35 C33.10957031 34.41992188 33.21914063 33.83984375 33.33203125 33.2421875 C34.31963104 28.37645195 35.64155866 24.40925989 38 20 C38.68636625 17.76474965 38.68636625 17.76474965 39 16 C39.66 16 40.32 16 41 16 C41.66 13.03 42.32 10.06 43 7 C43.66 7 44.32 7 45 7 C45.185625 5.5459375 45.185625 5.5459375 45.375 4.0625 C45.58125 3.051875 45.7875 2.04125 46 1 C48.97239791 -0.48619895 51.69619578 -0.13177009 55 -0.125 C56.8871875 -0.12886719 56.8871875 -0.12886719 58.8125 -0.1328125 C62 0 62 0 64 1 C64.6328125 3.28515625 64.6328125 3.28515625 65.125 6.0625 C65.29257812 6.98160156 65.46015625 7.90070312 65.6328125 8.84765625 C65.75398438 9.55792969 65.87515625 10.26820313 66 11 C66.66 11 67.32 11 68 11 C68.99 15.95 68.99 15.95 70 21 C70.66 21 71.32 21 72 21 C72.99 25.95 72.99 25.95 74 31 C74.66 31 75.32 31 76 31 C76 32.32 76 33.64 76 35 C78.86238769 32.56166974 79.85693578 30.21633777 81.0625 26.6875 C81.39894531 25.71554687 81.73539062 24.74359375 82.08203125 23.7421875 C82.38496094 22.83726562 82.68789063 21.93234375 83 21 C83.4125 19.783125 83.825 18.56625 84.25 17.3125 C84.4975 16.549375 84.745 15.78625 85 15 C85.66 15 86.32 15 87 15 C87.66 11.7 88.32 8.4 89 5 C89.66 5 90.32 5 91 5 C91.33 3.35 91.66 1.7 92 0 C97.28 0 102.56 0 108 0 C106.87587603 6.74474381 106.87587603 6.74474381 105.40625 10.1640625 C105.09816406 10.89367187 104.79007812 11.62328125 104.47265625 12.375 C104.15167969 13.1175 103.83070313 13.86 103.5 14.625 C102.86205212 16.1161071 102.22654891 17.60826299 101.59375 19.1015625 C101.17125977 20.08116943 101.17125977 20.08116943 100.74023438 21.08056641 C99.98732127 23.03287606 99.4646792 24.96164502 99 27 C98.34 27 97.68 27 97 27 C96.34 29.97 95.68 32.94 95 36 C94.34 36 93.68 36 93 36 C92.01 40.95 92.01 40.95 91 46 C90.34 46 89.68 46 89 46 C88.855625 46.928125 88.71125 47.85625 88.5625 48.8125 C88 52 88 52 87 55 C86.34 55 85.68 55 85 55 C84.67 56.32 84.34 57.64 84 59 C81.87506859 59.02693575 79.75004088 59.04636628 77.625 59.0625 C76.44164062 59.07410156 75.25828125 59.08570313 74.0390625 59.09765625 C71 59 71 59 69 58 C68.375 54.9375 68.375 54.9375 68 52 C67.34 52 66.68 52 66 52 C65.34 48.7 64.68 45.4 64 42 C63.34 42 62.68 42 62 42 C61.81824219 41.3709375 61.63648438 40.741875 61.44921875 40.09375 C60.20428947 35.85460618 58.92223466 31.6788215 57.3125 27.5625 C56 24 56 24 56 21 C55.34 21 54.68 21 54 21 C53.67 22.98 53.34 24.96 53 27 C52.34 27 51.68 27 51 27 C50.34 29.97 49.68 32.94 49 36 C48.34 36 47.68 36 47 36 C46.89042969 36.58007812 46.78085937 37.16015625 46.66796875 37.7578125 C45.68036896 42.62354805 44.35844134 46.59074011 42 51 C41.31363375 53.23525035 41.31363375 53.23525035 41 55 C40.34 55 39.68 55 39 55 C39 55.99 39 56.98 39 58 C36.11584117 59.44207941 33.58278472 59.09394887 30.375 59.0625 C29.18648438 59.05347656 27.99796875 59.04445313 26.7734375 59.03515625 C25.85820312 59.02355469 24.94296875 59.01195312 24 59 C20.71232131 53.64993984 18.40316925 49.31631828 18 43 C17.34 43 16.68 43 16 43 C14.50178941 39.62902617 14 37.79557881 14 34 C13.34 34 12.68 34 12 34 C11.34 30.7 10.68 27.4 10 24 C9.34 24 8.68 24 8 24 C7.34 21.03 6.68 18.06 6 15 C5.34 15 4.68 15 4 15 C3.34 11.7 2.68 8.4 2 5 C1.34 5 0.68 5 0 5 C0 3.35 0 1.7 0 0 Z " fill="#00008B" transform="translate(245,633)"/>
<path d="M0 0 C16 0 16 0 18 1 C18.625 4.0625 18.625 4.0625 19 7 C19.66 7 20.32 7 21 7 C23.39542583 11.58154261 25.50829734 16.0276578 27 21 C27.66 21 28.32 21 29 21 C33.40774487 30.41002278 33.40774487 30.41002278 34 35 C36.35785318 34.10664203 36.35785318 34.10664203 37.125 30.9375 C37.41375 29.968125 37.7025 28.99875 38 28 C38.66 28 39.32 28 40 28 C40.144375 27.4225 40.28875 26.845 40.4375 26.25 C40.95833333 24.16666667 41.47916667 22.08333333 42 20 C42.66 20 43.32 20 44 20 C44.66 17.69 45.32 15.38 46 13 C46.66 13 47.32 13 48 13 C48.66 10.36 49.32 7.72 50 5 C50.66 5 51.32 5 52 5 C52.144375 4.360625 52.28875 3.72125 52.4375 3.0625 C53 1 53 1 54 0 C56.6773138 -0.09981214 59.32304175 -0.13879875 62 -0.125 C62.75023437 -0.12886719 63.50046875 -0.13273438 64.2734375 -0.13671875 C69.87338947 -0.12661053 69.87338947 -0.12661053 71 1 C71.09893778 2.77446009 71.12799092 4.55286251 71.12939453 6.33007812 C71.13254669 7.46795776 71.13569885 8.6058374 71.13894653 9.77819824 C71.13591019 11.63595886 71.13591019 11.63595886 71.1328125 13.53125 C71.13376923 14.79263794 71.13472595 16.05402588 71.13571167 17.3536377 C71.13639375 20.02697138 71.13503529 22.70021437 71.13037109 25.37353516 C71.12467381 28.80706691 71.12795301 32.2405205 71.13394356 35.67404938 C71.13841762 38.93895243 71.13528883 42.20384593 71.1328125 45.46875 C71.13483673 46.70725708 71.13686096 47.94576416 71.13894653 49.22180176 C71.13421829 50.92862122 71.13421829 50.92862122 71.12939453 52.66992188 C71.12859894 53.67728394 71.12780334 54.684646 71.12698364 55.72253418 C71 58 71 58 70 59 C67.48863896 59.09975032 65.01096585 59.13882183 62.5 59.125 C61.79746094 59.12886719 61.09492187 59.13273438 60.37109375 59.13671875 C55.12661378 59.12661378 55.12661378 59.12661378 54 58 C53.84259395 56.29436222 53.74906608 54.58272756 53.68359375 52.87109375 C53.64169922 51.83662109 53.59980469 50.80214844 53.55664062 49.73632812 C53.51732422 48.64771484 53.47800781 47.55910156 53.4375 46.4375 C53.39431641 45.34501953 53.35113281 44.25253906 53.30664062 43.12695312 C53.20017932 40.41810436 53.09816484 37.70916008 53 35 C51.68 37.64 50.36 40.28 49 43 C48.34 43 47.68 43 47 43 C46.690625 44.11375 46.38125 45.2275 46.0625 46.375 C45 50 45 50 44 52 C41.37493198 52.02690844 38.75013827 52.04679404 36.125 52.0625 C35.37863281 52.07087891 34.63226562 52.07925781 33.86328125 52.08789062 C28.2265625 52.11328125 28.2265625 52.11328125 26 51 C25.375 48.4375 25.375 48.4375 25 46 C24.34 46 23.68 46 23 46 C22.34895833 44.40494792 21.69791667 42.80989583 21.046875 41.21484375 C19.55030158 38.0485858 17.73754355 35.04070121 16 32 C15.67 40.91 15.34 49.82 15 59 C10.05 59 5.1 59 0 59 C0 39.53 0 20.06 0 0 Z " fill="#00008B" transform="translate(1530,633)"/>
<path d="M0 0 C9.1265625 -0.061875 9.1265625 -0.061875 18.4375 -0.125 C20.33943115 -0.14320801 22.2413623 -0.16141602 24.20092773 -0.18017578 C25.73681355 -0.18602617 27.27270251 -0.19112043 28.80859375 -0.1953125 C29.58303833 -0.20554443 30.35748291 -0.21577637 31.15539551 -0.22631836 C36.66768852 -0.22804771 41.67110991 0.60550654 47 2 C47 2.66 47 3.32 47 4 C47.61875 4.28875 48.2375 4.5775 48.875 4.875 C51 6 51 6 53 8 C53 8.99 53 9.98 53 11 C53.66 11 54.32 11 55 11 C55.50776778 21.73834832 55.50776778 21.73834832 52 27 C52.69140351 29.30287793 52.69140351 29.30287793 54 31 C54.66 31 55.32 31 56 31 C57.11083501 34.33250502 57.16759585 36.93038958 57.1875 40.4375 C57.20167969 41.57058594 57.21585938 42.70367188 57.23046875 43.87109375 C57.01071135 46.85457979 56.55843386 48.49295423 55 51 C54.34 51 53.68 51 53 51 C52.67 51.99 52.34 52.98 52 54 C49 56 49 56 46 56 C46 56.66 46 57.32 46 58 C40.83928929 59.05477044 35.90307969 59.12983321 30.6640625 59.09765625 C29.88377686 59.09664917 29.10349121 59.09564209 28.29956055 59.09460449 C25.40802524 59.08940541 22.51651101 59.07544433 19.625 59.0625 C13.14875 59.041875 6.6725 59.02125 0 59 C0 39.53 0 20.06 0 0 Z M14 15 C14 16.98 14 18.96 14 21 C21.92 21 29.84 21 38 21 C38.33 19.35 38.66 17.7 39 16 C37.96207228 14.73818905 37.96207228 14.73818905 35.68334961 14.88647461 C34.18300171 14.89432983 34.18300171 14.89432983 32.65234375 14.90234375 C31.57275391 14.90556641 30.49316406 14.90878906 29.38085938 14.91210938 C27.67639648 14.92467773 27.67639648 14.92467773 25.9375 14.9375 C24.79732422 14.94201172 23.65714844 14.94652344 22.48242188 14.95117188 C19.65489649 14.96300253 16.8274736 14.9794859 14 15 Z M14 36 C14 38.64 14 41.28 14 44 C18.29161047 44.05783842 22.58312145 44.0935412 26.875 44.125 C28.09832031 44.14175781 29.32164063 44.15851562 30.58203125 44.17578125 C32.33193359 44.18544922 32.33193359 44.18544922 34.1171875 44.1953125 C35.19597168 44.20578613 36.27475586 44.21625977 37.38623047 44.22705078 C40.16044022 44.26839977 40.16044022 44.26839977 42 42 C41.67 40.02 41.34 38.04 41 36 C32.09 36 23.18 36 14 36 Z " fill="#00008B" transform="translate(7,633)"/>
<path d="M0 0 C16 0 16 0 19 2 C19 2.66 19 3.32 19 4 C19.99 4.33 20.98 4.66 22 5 C23.21713191 6.71056377 24.43030733 8.42439755 25.60546875 10.1640625 C26.98201852 11.97632691 28.33653796 13.23150848 30.125 14.625 C33.03644646 17.03010795 34.16024708 18.76203485 36 22 C39.70467672 27.08812743 43.53015724 31.53015724 48 36 C48.33 24.12 48.66 12.24 49 0 C53.95 0 58.9 0 64 0 C64 19.47 64 38.94 64 59 C48 59 48 59 42 54 C41.3125 51.75 41.3125 51.75 41 50 C40.01 49.67 39.02 49.34 38 49 C37.690625 48.195625 37.38125 47.39125 37.0625 46.5625 C36.27970992 43.88402272 36.27970992 43.88402272 34.125 43.0625 C30.98618714 41.49309357 29.84782328 38.92075293 28 36 C27.4225 35.4225 26.845 34.845 26.25 34.25 C25.8375 33.8375 25.425 33.425 25 33 C25 32.34 25 31.68 25 31 C24.34 31 23.68 31 23 31 C18 25.52380952 18 25.52380952 18 23 C17.34 23 16.68 23 16 23 C15.67 34.88 15.34 46.76 15 59 C10.05 59 5.1 59 0 59 C0 39.53 0 20.06 0 0 Z " fill="#00008B" transform="translate(909,633)"/>
<path d="M0 0 C16 0 16 0 22 5 C23.44517474 6.68814633 24.84516828 8.4164795 26.1875 10.1875 C28.41041663 13.11192879 29.91865676 14.94577118 33 17 C33.309375 17.99 33.61875 18.98 33.9375 20 C34.65020896 23.08423191 34.65020896 23.08423191 36.875 24 C37.57625 24.33 38.2775 24.66 39 25 C40.36363208 26.97946592 41.69418644 28.9819245 43 31 C44.65 32.65 46.3 34.3 48 36 C48.33 24.12 48.66 12.24 49 0 C53.95 0 58.9 0 64 0 C64 19.47 64 38.94 64 59 C48 59 48 59 42 54 C40.1015625 51.83203125 40.1015625 51.83203125 38.625 49.8125 C38.12226563 49.13832031 37.61953125 48.46414063 37.1015625 47.76953125 C36 46 36 46 36 44 C35.4225 43.79375 34.845 43.5875 34.25 43.375 C31.17855061 41.49800315 29.94557229 39.00679355 28 36 C26.3545622 34.31237149 24.68711423 32.6459651 23 31 C18 25.49453552 18 25.49453552 18 23 C17.34 23 16.68 23 16 23 C15.67 34.88 15.34 46.76 15 59 C10.05 59 5.1 59 0 59 C0 39.53 0 20.06 0 0 Z " fill="#00008B" transform="translate(419,633)"/>
<path d="M0 0 C5.28 0 10.56 0 16 0 C19.03281652 3.03281652 21.97580906 5.9923601 24.8125 9.1875 C25.41707031 9.86167969 26.02164063 10.53585937 26.64453125 11.23046875 C28 13 28 13 28 15 C28.5775 15.20625 29.155 15.4125 29.75 15.625 C32.82144939 17.50199685 34.05442771 19.99320645 36 23 C37.64429829 24.68873879 39.31384218 26.35305515 41 28 C43.31 30.64 45.62 33.28 48 36 C48.33 24.12 48.66 12.24 49 0 C53.95 0 58.9 0 64 0 C64 19.47 64 38.94 64 59 C48 59 48 59 42 54 C40.49609375 52.15625 40.49609375 52.15625 39.4375 50.5 C37.27033665 47.28758101 34.78110938 44.70792229 32 42 C29 38.37931034 29 38.37931034 29 36 C27.515 35.505 27.515 35.505 26 35 C24.71875 33.4765625 24.71875 33.4765625 23.5 31.625 C22.2057962 29.67539813 21.03003377 28.02904208 19.34375 26.3984375 C18 25 18 25 18 23 C17.34 23 16.68 23 16 23 C15.67 34.88 15.34 46.76 15 59 C10.05 59 5.1 59 0 59 C0 39.53 0 20.06 0 0 Z " fill="#00008B" transform="translate(511,633)"/>
<path d="M0 0 C5.28 0 10.56 0 16 0 C19.03281652 3.03281652 21.97580906 5.9923601 24.8125 9.1875 C25.41707031 9.86167969 26.02164062 10.53585937 26.64453125 11.23046875 C28 13 28 13 28 15 C28.5775 15.20625 29.155 15.4125 29.75 15.625 C32.82144939 17.50199685 34.05442771 19.99320645 36 23 C36.763125 23.763125 37.52625 24.52625 38.3125 25.3125 C41.89056056 28.89056056 44.89337346 33.00576587 48 37 C48.33 24.79 48.66 12.58 49 0 C53.62 0 58.24 0 63 0 C64.7182309 1.7182309 64.12754321 3.98597749 64.12939453 6.33007812 C64.13254669 7.46795776 64.13569885 8.6058374 64.13894653 9.77819824 C64.13591019 11.63595886 64.13591019 11.63595886 64.1328125 13.53125 C64.13376923 14.79263794 64.13472595 16.05402588 64.13571167 17.3536377 C64.13639375 20.02697138 64.13503529 22.70021437 64.13037109 25.37353516 C64.12467381 28.80706691 64.12795301 32.2405205 64.13394356 35.67404938 C64.13841762 38.93895243 64.13528883 42.20384593 64.1328125 45.46875 C64.13483673 46.70725708 64.13686096 47.94576416 64.13894653 49.22180176 C64.13421829 50.92862122 64.13421829 50.92862122 64.12939453 52.66992188 C64.12859894 53.67728394 64.12780334 54.684646 64.12698364 55.72253418 C64 58 64 58 63 59 C48.47413218 60.25377404 48.47413218 60.25377404 44.375 56.9375 C42.20564919 54.25435558 40.15146759 51.55832495 38.22265625 48.69921875 C36.41999103 46.19391724 34.20650245 44.14843659 32 42 C29 38.37931034 29 38.37931034 29 36 C27.515 35.505 27.515 35.505 26 35 C24.7890625 33.546875 24.7890625 33.546875 23.625 31.75 C21.33866749 28.23495818 19.15574691 26.15574691 16 23 C15.67 34.88 15.34 46.76 15 59 C10.05 59 5.1 59 0 59 C0 39.53 0 20.06 0 0 Z " fill="#00008B" transform="translate(1128,633)"/>
<path d="M0 0 C5.28 0 10.56 0 16 0 C21 5 21 5 21 7 C21.5775 7.20625 22.155 7.4125 22.75 7.625 C25.80552637 9.49226612 27.07499277 12.01934365 29 15 C29.99 15.66 30.98 16.32 32 17 C32 17.99 32 18.98 32 20 C32.99 20.33 33.98 20.66 35 21 C37.1875 22.875 37.1875 22.875 39 25 C39 25.99 39 26.98 39 28 C39.99 28.33 40.98 28.66 42 29 C42.66666667 30.66666667 43.33333333 32.33333333 44 34 C44.99 34.33 45.98 34.66 47 35 C47.03758423 33.46291382 47.03758423 33.46291382 47.07592773 31.89477539 C47.16984484 28.10590324 47.27010317 24.31722119 47.37231445 20.52856445 C47.41572297 18.88635697 47.45739358 17.24410261 47.49731445 15.60180664 C47.5548744 13.24611255 47.61860892 10.89065572 47.68359375 8.53515625 C47.70866249 7.42733543 47.70866249 7.42733543 47.73423767 6.2971344 C47.88612829 1.11387171 47.88612829 1.11387171 49 0 C53.62 0 58.24 0 63 0 C63 19.47 63 38.94 63 59 C47 59 47 59 42 54.625 C40.62796545 52.77813131 39.29464766 50.90191751 38 49 C36.57473369 47.19858621 35.13760413 45.40648076 33.6875 43.625 C33.07261719 42.83351563 32.45773437 42.04203125 31.82421875 41.2265625 C30.02473888 38.95467851 30.02473888 38.95467851 27.890625 36.89453125 C26 35 26 35 24.0625 32.0625 C21.9769936 28.96583898 19.70550808 26.5592644 17 24 C16.67 23.67 16.34 23.34 16 23 C15.67 34.88 15.34 46.76 15 59 C10.05 59 5.1 59 0 59 C0 39.53 0 20.06 0 0 Z " fill="#00008B" transform="translate(1625,633)"/>
<path d="M0 0 C0 0.66 0 1.32 0 2 C0.721875 2.226875 1.44375 2.45375 2.1875 2.6875 C5.54562879 4.25462677 7.4618052 6.328216 10 9 C10.99 9.66 11.98 10.32 13 11 C13.6875 14.125 13.6875 14.125 14 17 C14.66 17 15.32 17 16 17 C17.09016409 20.53005515 17.13344314 23.81878963 17.125 27.5 C17.12886719 29.18609375 17.12886719 29.18609375 17.1328125 30.90625 C17.02266367 33.4720699 16.75270662 35.56266427 16 38 C15.34 38 14.68 38 14 38 C14 38.845625 14 39.69125 14 40.5625 C12.02244945 47.36033003 4.88943107 51.52989953 -1.0234375 55 C-10.1813607 59.63325759 -22.26432893 59.23295432 -32.0234375 56.7109375 C-35.29537862 55.5340733 -38.07255193 53.86858387 -41 52 C-41 51.34 -41 50.68 -41 50 C-41.7425 49.79375 -42.485 49.5875 -43.25 49.375 C-46.82371889 47.58814055 -48.06522496 45.43960007 -50 42 C-50 41.34 -50 40.68 -50 40 C-50.66 40 -51.32 40 -52 40 C-53.16854757 35.83639654 -53.14687633 31.79505199 -53.125 27.5 C-53.12886719 26.74074219 -53.13273438 25.98148438 -53.13671875 25.19921875 C-53.13046768 21.62985544 -52.96340936 18.43268398 -52 15 C-51.34 15 -50.68 15 -50 15 C-49.773125 14.278125 -49.54625 13.55625 -49.3125 12.8125 C-47.73664872 9.43567583 -45.79123384 7.44232961 -43 5 C-42.34 5 -41.68 5 -41 5 C-41 4.34 -41 3.68 -41 3 C-39.68 2.67 -38.36 2.34 -37 2 C-37 1.34 -37 0.68 -37 0 C-24.60079267 -4.33070027 -12.39920733 -4.33070027 0 0 Z M-32 15 C-32 15.66 -32 16.32 -32 17 C-32.63164063 17.23332031 -33.26328125 17.46664062 -33.9140625 17.70703125 C-36.16981578 18.82648055 -36.16981578 18.82648055 -36.8984375 21.13671875 C-37.94615617 26.74458999 -38.4112314 30.73913149 -36 36 C-34.01432266 37.49743888 -34.01432266 37.49743888 -32 38 C-32 38.66 -32 39.32 -32 40 C-27.45765731 42.27117134 -23.45835291 42.3013819 -18.5 42.25 C-17.38044922 42.26160156 -17.38044922 42.26160156 -16.23828125 42.2734375 C-12.0421752 42.25858403 -8.83148212 41.91574106 -5 40 C-5 39.34 -5 38.68 -5 38 C-4.01 37.67 -3.02 37.34 -2 37 C0.92151439 33.96849919 1.43173437 31.71951826 1.4375 27.5625 C1.34000851 23.72441397 1.1156628 22.19662676 -0.875 18.8125 C-2.78811334 16.78368446 -2.78811334 16.78368446 -5 17 C-5 16.34 -5 15.68 -5 15 C-9.54234269 12.72882866 -13.54164709 12.6986181 -18.5 12.75 C-19.24636719 12.74226562 -19.99273438 12.73453125 -20.76171875 12.7265625 C-24.9578248 12.74141597 -28.16851788 13.08425894 -32 15 Z " fill="#00008B" transform="translate(887,635)"/>
<path d="M0 0 C6.105 -0.04125 12.21 -0.0825 18.5 -0.125 C20.41103516 -0.14320801 22.32207031 -0.16141602 24.29101562 -0.18017578 C25.82942424 -0.18602464 27.36783598 -0.19111927 28.90625 -0.1953125 C30.07559082 -0.2106604 30.07559082 -0.2106604 31.26855469 -0.22631836 C36.50108862 -0.22795968 40.96774111 0.55147129 46 2 C46 2.66 46 3.32 46 4 C46.60328125 4.09925781 47.2065625 4.19851563 47.828125 4.30078125 C51.20937865 5.38935032 52.2621761 7.36298783 54.0234375 10.33984375 C56.24944178 16.40347942 56.2042365 24.86647233 54 31 C51.5625 33.75 51.5625 33.75 49 36 C48.34 36 47.68 36 47 36 C47.495 38.97 47.495 38.97 48 42 C48.66 42 49.32 42 50 42 C50.28875 42.804375 50.5775 43.60875 50.875 44.4375 C51.73262568 47.1326468 51.73262568 47.1326468 54 48 C58 54.23529412 58 54.23529412 58 59 C55.22754986 59.13487595 52.46162912 59.23400807 49.6875 59.3125 C48.90181641 59.35439453 48.11613281 59.39628906 47.30664062 59.43945312 C45.09972567 59.48640876 43.15716021 59.47422058 41 59 C38.93110602 56.57508219 38 55.19969005 38 52 C37.34 52 36.68 52 36 52 C35.34 50.02 34.68 48.04 34 46 C33.34 46 32.68 46 32 46 C31.34 44.02 30.68 42.04 30 40 C25.05 40 20.1 40 15 40 C15 46.27 15 52.54 15 59 C10.05 59 5.1 59 0 59 C0 39.53 0 20.06 0 0 Z M15 15 C15 18.3 15 21.6 15 25 C18.81254623 25.02682792 22.62490612 25.04675477 26.4375 25.0625 C27.52611328 25.07087891 28.61472656 25.07925781 29.73632812 25.08789062 C31.28803711 25.09272461 31.28803711 25.09272461 32.87109375 25.09765625 C33.82943115 25.10289307 34.78776855 25.10812988 35.77514648 25.11352539 C37.97285339 25.2505313 37.97285339 25.2505313 39 24 C39.07148199 22.64756083 39.08399454 21.29165633 39.0625 19.9375 C39.041875 18.638125 39.02125 17.33875 39 16 C36.49502996 14.74751498 34.79146726 14.88625594 31.9921875 14.90234375 C31.00605469 14.90556641 30.01992187 14.90878906 29.00390625 14.91210938 C27.45509766 14.92467773 27.45509766 14.92467773 25.875 14.9375 C24.83472656 14.94201172 23.79445313 14.94652344 22.72265625 14.95117188 C20.14841313 14.96298033 17.57419947 14.98091615 15 15 Z " fill="#00008B" transform="translate(1467,633)"/>
<path d="M0 0 C6.105 -0.04125 12.21 -0.0825 18.5 -0.125 C20.41103516 -0.14320801 22.32207031 -0.16141602 24.29101562 -0.18017578 C25.82942424 -0.18602464 27.36783598 -0.19111927 28.90625 -0.1953125 C30.07559082 -0.2106604 30.07559082 -0.2106604 31.26855469 -0.22631836 C36.50108862 -0.22795968 40.96774111 0.55147129 46 2 C46 2.66 46 3.32 46 4 C46.928125 4.37125 46.928125 4.37125 47.875 4.75 C50.35068687 6.20628639 50.95125002 7.37812506 52 10 C52.66 10 53.32 10 54 10 C55.16152902 13.48458707 55.13270324 16.26690508 55.125 19.9375 C55.12886719 21.77634766 55.12886719 21.77634766 55.1328125 23.65234375 C54.87771534 30.08229284 54.87771534 30.08229284 52.37109375 32.703125 C51.73300781 33.21359375 51.09492187 33.7240625 50.4375 34.25 C49.47650391 35.03117188 49.47650391 35.03117188 48.49609375 35.828125 C48.00238281 36.21484375 47.50867187 36.6015625 47 37 C47.34444881 39.47266765 47.34444881 39.47266765 48 42 C48.99 42.495 48.99 42.495 50 43 C51.25390625 44.7421875 51.25390625 44.7421875 52.5625 46.875 C52.99691406 47.57367187 53.43132812 48.27234375 53.87890625 48.9921875 C55 51 55 51 56 54 C56.99 54.495 56.99 54.495 58 55 C58 56.32 58 57.64 58 59 C55.24894578 59.10812003 52.50214913 59.18734945 49.75 59.25 C48.58404297 59.30027344 48.58404297 59.30027344 47.39453125 59.3515625 C41.62396779 59.45020461 41.62396779 59.45020461 38.53125 57.21875 C36.52043478 54.30511979 35.79081507 51.4268653 35 48 C34.34 48 33.68 48 33 48 C30 42.25 30 42.25 30 40 C24.72 40 19.44 40 14 40 C14 46.27 14 52.54 14 59 C9.38 59 4.76 59 0 59 C0 39.53 0 20.06 0 0 Z M14 15 C14 18.3 14 21.6 14 25 C17.97915159 25.02886984 21.95827653 25.04675406 25.9375 25.0625 C27.64196289 25.07506836 27.64196289 25.07506836 29.38085938 25.08789062 C30.46044922 25.09111328 31.54003906 25.09433594 32.65234375 25.09765625 C33.65257568 25.10289307 34.65280762 25.10812988 35.68334961 25.11352539 C37.96207228 25.26181095 37.96207228 25.26181095 39 24 C39.07148199 22.64756083 39.08399454 21.29165633 39.0625 19.9375 C39.041875 18.638125 39.02125 17.33875 39 16 C36.44276771 14.72138385 34.63262898 14.88663391 31.7734375 14.90234375 C30.2265625 14.90717773 30.2265625 14.90717773 28.6484375 14.91210938 C27.56820313 14.92048828 26.48796875 14.92886719 25.375 14.9375 C24.28703125 14.94201172 23.1990625 14.94652344 22.078125 14.95117188 C19.38539338 14.9629821 16.69268991 14.98091795 14 15 Z " fill="#00008B" transform="translate(1254,633)"/>
<path d="M0 0 C16.83 0 33.66 0 51 0 C51 4.95 51 9.9 51 15 C39.12 15 27.24 15 15 15 C15 17.64 15 20.28 15 23 C25.23 23 35.46 23 46 23 C46 27.29 46 31.58 46 36 C35.77 36 25.54 36 15 36 C15 38.64 15 41.28 15 44 C26.88 44 38.76 44 51 44 C51 48.95 51 53.9 51 59 C34.17 59 17.34 59 0 59 C0 39.53 0 20.06 0 0 Z " fill="#00008B" transform="translate(1409,633)"/>
<path d="M0 0 C16.83 0 33.66 0 51 0 C51 4.95 51 9.9 51 15 C39.12 15 27.24 15 15 15 C15 17.64 15 20.28 15 23 C25.23 23 35.46 23 46 23 C46 27.29 46 31.58 46 36 C35.77 36 25.54 36 15 36 C15 38.64 15 41.28 15 44 C26.88 44 38.76 44 51 44 C51 48.95 51 53.9 51 59 C34.17 59 17.34 59 0 59 C0 39.53 0 20.06 0 0 Z " fill="#00008B" transform="translate(1197,633)"/>
<path d="M0 0 C16.83 0 33.66 0 51 0 C51 4.95 51 9.9 51 15 C39.12 15 27.24 15 15 15 C15 17.64 15 20.28 15 23 C25.23 23 35.46 23 46 23 C46 27.29 46 31.58 46 36 C35.77 36 25.54 36 15 36 C15 38.64 15 41.28 15 44 C26.88 44 38.76 44 51 44 C51 48.95 51 53.9 51 59 C34.17 59 17.34 59 0 59 C0 39.53 0 20.06 0 0 Z " fill="#00008B" transform="translate(580,633)"/>
<path d="M0 0 C16.83 0 33.66 0 51 0 C51 4.95 51 9.9 51 15 C39.12 15.33 27.24 15.66 15 16 C15 17.98 15 19.96 15 22 C25.23 22.33 35.46 22.66 46 23 C46 27.29 46 31.58 46 36 C30.655 36.495 30.655 36.495 15 37 C15 38.98 15 40.96 15 43 C26.88 43.33 38.76 43.66 51 44 C51 48.95 51 53.9 51 59 C34.17 59 17.34 59 0 59 C0 39.53 0 20.06 0 0 Z " fill="#00008B" transform="translate(70,633)"/>
<path d="M0 0 C1.14210938 -0.04898438 2.28421875 -0.09796875 3.4609375 -0.1484375 C6.625 0.375 6.625 0.375 8.9921875 2.69140625 C10.79439571 5.65340874 11.30595754 7.94529356 11.625 11.375 C12.285 11.375 12.945 11.375 13.625 11.375 C14.88164978 14.28100261 15.625 16.17104584 15.625 19.375 C16.285 19.375 16.945 19.375 17.625 19.375 C18.88164978 22.28100261 19.625 24.17104584 19.625 27.375 C20.285 27.375 20.945 27.375 21.625 27.375 C22.88164978 30.28100261 23.625 32.17104584 23.625 35.375 C24.285 35.375 24.945 35.375 25.625 35.375 C27.1344588 38.47465403 28.63090667 41.58041403 30.125 44.6875 C30.76888672 46.00911133 30.76888672 46.00911133 31.42578125 47.35742188 C31.83183594 48.20498047 32.23789063 49.05253906 32.65625 49.92578125 C33.03330078 50.70606689 33.41035156 51.48635254 33.79882812 52.2902832 C34.625 54.375 34.625 54.375 34.625 57.375 C35.285 57.375 35.945 57.375 36.625 57.375 C36.625 58.035 36.625 58.695 36.625 59.375 C34.02021117 59.4559313 31.41793347 59.51545434 28.8125 59.5625 C28.07451172 59.58763672 27.33652344 59.61277344 26.57617188 59.63867188 C21.11505469 59.71280469 21.11505469 59.71280469 18.61328125 57.98828125 C17.625 56.375 17.625 56.375 17.625 54.375 C16.965 54.375 16.305 54.375 15.625 54.375 C14.965 52.395 14.305 50.415 13.625 48.375 C4.385 48.375 -4.855 48.375 -14.375 48.375 C-15.365 51.345 -16.355 54.315 -17.375 57.375 C-18.035 57.375 -18.695 57.375 -19.375 57.375 C-19.375 58.035 -19.375 58.695 -19.375 59.375 C-24.655 59.375 -29.935 59.375 -35.375 59.375 C-35.045 57.065 -34.715 54.755 -34.375 52.375 C-33.715 52.375 -33.055 52.375 -32.375 52.375 C-32.11847656 51.54613281 -31.86195312 50.71726562 -31.59765625 49.86328125 C-30.23047546 45.96266641 -28.58372172 42.29245909 -26.8125 38.5625 C-26.46751465 37.8305542 -26.1225293 37.0986084 -25.76708984 36.34448242 C-22.81716745 30.15492489 -19.64518155 24.09455196 -16.34545898 18.0847168 C-14.26676106 14.25720634 -12.6163858 10.5761109 -11.375 6.375 C-10.715 6.375 -10.055 6.375 -9.375 6.375 C-9.25125 5.570625 -9.1275 4.76625 -9 3.9375 C-8.690625 2.6690625 -8.690625 2.6690625 -8.375 1.375 C-5.56635786 -0.02932107 -3.1311645 0.09147222 0 0 Z M-0.375 19.375 C-0.705 21.025 -1.035 22.675 -1.375 24.375 C-2.035 24.375 -2.695 24.375 -3.375 24.375 C-4.365 27.015 -5.355 29.655 -6.375 32.375 C-2.085 32.375 2.205 32.375 6.625 32.375 C4.645 28.085 2.665 23.795 0.625 19.375 C0.295 19.375 -0.035 19.375 -0.375 19.375 Z " fill="#00008B" transform="translate(1730.375,632.625)"/>
<path d="M0 0 C1.14210937 -0.04898438 2.28421875 -0.09796875 3.4609375 -0.1484375 C6.625 0.375 6.625 0.375 8.9921875 2.69140625 C10.79439571 5.65340874 11.30595754 7.94529356 11.625 11.375 C12.285 11.375 12.945 11.375 13.625 11.375 C14.88164978 14.28100261 15.625 16.17104584 15.625 19.375 C16.285 19.375 16.945 19.375 17.625 19.375 C18.88164978 22.28100261 19.625 24.17104584 19.625 27.375 C20.285 27.375 20.945 27.375 21.625 27.375 C22.88164978 30.28100261 23.625 32.17104584 23.625 35.375 C24.285 35.375 24.945 35.375 25.625 35.375 C27.1344588 38.47465403 28.63090667 41.58041403 30.125 44.6875 C30.76888672 46.00911133 30.76888672 46.00911133 31.42578125 47.35742188 C31.83183594 48.20498047 32.23789063 49.05253906 32.65625 49.92578125 C33.03330078 50.70606689 33.41035156 51.48635254 33.79882812 52.2902832 C34.625 54.375 34.625 54.375 34.625 57.375 C35.285 57.375 35.945 57.375 36.625 57.375 C36.625 58.035 36.625 58.695 36.625 59.375 C34.02021117 59.4559313 31.41793347 59.51545434 28.8125 59.5625 C28.07451172 59.58763672 27.33652344 59.61277344 26.57617188 59.63867188 C21.11505469 59.71280469 21.11505469 59.71280469 18.61328125 57.98828125 C17.625 56.375 17.625 56.375 17.625 54.375 C16.965 54.375 16.305 54.375 15.625 54.375 C14.965 52.395 14.305 50.415 13.625 48.375 C4.385 48.375 -4.855 48.375 -14.375 48.375 C-15.365 51.345 -16.355 54.315 -17.375 57.375 C-18.035 57.375 -18.695 57.375 -19.375 57.375 C-19.375 58.035 -19.375 58.695 -19.375 59.375 C-24.655 59.375 -29.935 59.375 -35.375 59.375 C-35.045 57.065 -34.715 54.755 -34.375 52.375 C-33.715 52.375 -33.055 52.375 -32.375 52.375 C-32.11847656 51.54613281 -31.86195313 50.71726562 -31.59765625 49.86328125 C-30.23047546 45.96266641 -28.58372172 42.29245909 -26.8125 38.5625 C-26.46751465 37.8305542 -26.1225293 37.0986084 -25.76708984 36.34448242 C-22.81716745 30.15492489 -19.64518155 24.09455196 -16.34545898 18.0847168 C-14.26676106 14.25720634 -12.6163858 10.5761109 -11.375 6.375 C-10.715 6.375 -10.055 6.375 -9.375 6.375 C-9.25125 5.570625 -9.1275 4.76625 -9 3.9375 C-8.690625 2.6690625 -8.690625 2.6690625 -8.375 1.375 C-5.56635786 -0.02932107 -3.1311645 0.09147222 0 0 Z M-0.375 19.375 C-0.705 21.025 -1.035 22.675 -1.375 24.375 C-2.035 24.375 -2.695 24.375 -3.375 24.375 C-4.365 27.015 -5.355 29.655 -6.375 32.375 C-2.085 32.375 2.205 32.375 6.625 32.375 C4.645 28.085 2.665 23.795 0.625 19.375 C0.295 19.375 -0.035 19.375 -0.375 19.375 Z " fill="#00008B" transform="translate(218.375,632.625)"/>
<path d="M0 0 C1.14210938 -0.04898438 2.28421875 -0.09796875 3.4609375 -0.1484375 C6.625 0.375 6.625 0.375 8.9921875 2.69140625 C10.79439571 5.65340874 11.30595754 7.94529356 11.625 11.375 C12.285 11.375 12.945 11.375 13.625 11.375 C14.88164978 14.28100261 15.625 16.17104584 15.625 19.375 C16.285 19.375 16.945 19.375 17.625 19.375 C18.12 21.85 18.12 21.85 18.625 24.375 C19.285 24.375 19.945 24.375 20.625 24.375 C21.88164978 27.28100261 22.625 29.17104584 22.625 32.375 C23.285 32.375 23.945 32.375 24.625 32.375 C25.285 35.015 25.945 37.655 26.625 40.375 C27.285 40.375 27.945 40.375 28.625 40.375 C29.615 44.335 29.615 44.335 30.625 48.375 C31.285 48.375 31.945 48.375 32.625 48.375 C33.615 52.83 33.615 52.83 34.625 57.375 C35.285 57.375 35.945 57.375 36.625 57.375 C36.625 58.035 36.625 58.695 36.625 59.375 C34.02021117 59.4559313 31.41793347 59.51545434 28.8125 59.5625 C28.07451172 59.58763672 27.33652344 59.61277344 26.57617188 59.63867188 C21.11982821 59.71273989 21.11982821 59.71273989 18.65625 58.03125 C17.31293042 55.87379734 16.96285905 53.87515696 16.625 51.375 C15.965 51.375 15.305 51.375 14.625 51.375 C14.625 50.055 14.625 48.735 14.625 47.375 C10.0817228 47.22307941 5.54562917 47.19421768 1 47.1875 C-0.28519531 47.14302734 -1.57039063 47.09855469 -2.89453125 47.05273438 C-6.68857912 47.08222179 -9.75718374 47.21378855 -13.375 48.375 C-16.50096381 51.90825329 -17.63705666 54.88800502 -19.375 59.375 C-24.655 59.375 -29.935 59.375 -35.375 59.375 C-34.45488583 54.77442914 -33.27059434 51.57827441 -31.375 47.375 C-30.715 47.375 -30.055 47.375 -29.375 47.375 C-29.230625 46.611875 -29.08625 45.84875 -28.9375 45.0625 C-28.375 42.375 -28.375 42.375 -27.375 39.375 C-26.715 39.375 -26.055 39.375 -25.375 39.375 C-25.230625 38.611875 -25.08625 37.84875 -24.9375 37.0625 C-24.375 34.375 -24.375 34.375 -23.375 31.375 C-22.715 31.375 -22.055 31.375 -21.375 31.375 C-21.271875 30.488125 -21.16875 29.60125 -21.0625 28.6875 C-20.3405982 25.20924589 -19.28115886 23.340136 -17.375 20.375 C-14.45905556 14.91855461 -11.97530969 9.27444313 -9.5234375 3.59765625 C-7.408641 -0.49526624 -4.26530251 0.12460434 0 0 Z M-0.375 19.375 C-2.355 23.665 -4.335 27.955 -6.375 32.375 C-2.085 32.375 2.205 32.375 6.625 32.375 C6.295 31.055 5.965 29.735 5.625 28.375 C4.965 28.375 4.305 28.375 3.625 28.375 C3.50125 27.6325 3.3775 26.89 3.25 26.125 C2.67013299 23.57358515 1.88791261 21.6482427 0.625 19.375 C0.295 19.375 -0.035 19.375 -0.375 19.375 Z " fill="#00008B" transform="translate(1067.375,632.625)"/>
<path d="M0 0 C2.29141286 -0.05384521 4.58318188 -0.09272087 6.875 -0.125 C8.78925781 -0.15980469 8.78925781 -0.15980469 10.7421875 -0.1953125 C14 0 14 0 16 2 C16 2.99 16 3.98 16 5 C16.66 5 17.32 5 18 5 C18.66 7.64 19.32 10.28 20 13 C20.66 13 21.32 13 22 13 C22.66 15.64 23.32 18.28 24 21 C24.66 21 25.32 21 26 21 C32 34.36893204 32 34.36893204 32 38 C32.66 38 33.32 38 34 38 C35.25664978 40.90600261 36 42.79604584 36 46 C36.66 46 37.32 46 38 46 C38.495 48.475 38.495 48.475 39 51 C39.66 51 40.32 51 41 51 C41.99 54.96 41.99 54.96 43 59 C37.72 59 32.44 59 27 59 C26.67 58.01 26.34 57.02 26 56 C25.34 56 24.68 56 24 56 C23.01 53.36 22.02 50.72 21 48 C11.76 48 2.52 48 -7 48 C-7.66 49.98 -8.32 51.96 -9 54 C-9.66 54 -10.32 54 -11 54 C-11.99 56.475 -11.99 56.475 -13 59 C-17.95 59 -22.9 59 -28 59 C-26.91891892 51.43243243 -26.91891892 51.43243243 -24 47 C-20.96006771 41.05801572 -18.09667667 35.03643815 -15.25 29 C-14.83878906 28.12988281 -14.42757813 27.25976562 -14.00390625 26.36328125 C-13.00180808 24.24256188 -12.00052122 22.12146369 -11 20 C-10.34 20 -9.68 20 -9 20 C-8.7834375 18.8553125 -8.7834375 18.8553125 -8.5625 17.6875 C-8 15 -8 15 -7 12 C-6.34 12 -5.68 12 -5 12 C-4.855625 11.236875 -4.71125 10.47375 -4.5625 9.6875 C-4 7 -4 7 -3 4 C-2.34 4 -1.68 4 -1 4 C-0.67 2.68 -0.34 1.36 0 0 Z M7 20 C4.82961523 20.79299706 4.82961523 20.79299706 4.3671875 22.84765625 C4.20476562 23.57855469 4.04234375 24.30945313 3.875 25.0625 C3.70742188 25.79597656 3.53984375 26.52945313 3.3671875 27.28515625 C3.24601562 27.85105469 3.12484375 28.41695312 3 29 C2.34 29 1.68 29 1 29 C1 29.99 1 30.98 1 32 C5.29 32 9.58 32 14 32 C13.34 31.67 12.68 31.34 12 31 C11.61866701 29.0085944 11.28674418 27.00720923 11 25 C10.67 24.34 10.34 23.68 10 23 C9.34 23 8.68 23 8 23 C7.67 22.01 7.34 21.02 7 20 Z " fill="#00008B" transform="translate(372,633)"/>
<path d="M0 0 C0 0.66 0 1.32 0 2 C0.7425 2.268125 1.485 2.53625 2.25 2.8125 C4.93191253 3.97059859 6.89701139 4.97489986 9 7 C9 8.32 9 9.64 9 11 C8.34 11 7.68 11 7 11 C6.67 11.99 6.34 12.98 6 14 C3.6875 16.75 3.6875 16.75 1 19 C-1.48185976 18.85817944 -2.79246904 18.10376548 -5 17 C-5 16.34 -5 15.68 -5 15 C-9.33650906 13.93281222 -13.56115005 13.85043072 -18 13.875 C-18.69867187 13.87113281 -19.39734375 13.86726562 -20.1171875 13.86328125 C-23.87074298 13.87036343 -27.35151145 14.10212977 -31 15 C-31 15.66 -31 16.32 -31 17 C-32.33333333 18.33333333 -33.66666667 19.66666667 -35 21 C-36.3605163 25.08154889 -36.80116991 28.76588049 -35.31640625 32.90625 C-33.01974793 37.40426961 -30.80736488 39.09837025 -26 41 C-23.24920886 41.31061833 -20.80154187 41.47649107 -18.0625 41.4375 C-17.35319336 41.43355225 -16.64388672 41.42960449 -15.91308594 41.42553711 C-10.38887482 41.27293812 -7.35116759 40.2633757 -3 37 C-0.875 35.9375 -0.875 35.9375 1 36 C4.09224982 38.63972546 6.82028984 41.55835238 9 45 C9 45.99 9 46.98 9 48 C-1.25922303 56.75453698 -10.91804867 58.52096266 -24 58 C-32.70746354 57.30125293 -40.52644855 53.03616894 -46.21875 46.421875 C-50.82483694 39.96580232 -52.16491643 35.48591133 -52.125 27.5625 C-52.12886719 26.79873047 -52.13273438 26.03496094 -52.13671875 25.24804688 C-52.13542969 24.50748047 -52.13414062 23.76691406 -52.1328125 23.00390625 C-52.13112061 21.99565796 -52.13112061 21.99565796 -52.12939453 20.96704102 C-51.99199609 18.87832541 -51.56530559 17.01169075 -51 15 C-50.34 15 -49.68 15 -49 15 C-48.95875 14.278125 -48.9175 13.55625 -48.875 12.8125 C-47.61719712 8.76956216 -45.32953708 7.56651817 -42 5 C-41.67 4.34 -41.34 3.68 -41 3 C-38.4375 2.375 -38.4375 2.375 -36 2 C-36 1.34 -36 0.68 -36 0 C-23.73645407 -4.20464432 -12.26354593 -4.20464432 0 0 Z " fill="#00008B" transform="translate(825,635)"/>
<path d="M0 0 C20.79 0 41.58 0 63 0 C63 4.95 63 9.9 63 15 C55.08 15 47.16 15 39 15 C39 29.52 39 44.04 39 59 C34.05 59 29.1 59 24 59 C24 44.48 24 29.96 24 15 C16.08 15 8.16 15 0 15 C0 10.05 0 5.1 0 0 Z " fill="#00008B" transform="translate(1340,633)"/>
<path d="M0 0 C21.12 0 42.24 0 64 0 C64 4.95 64 9.9 64 15 C55.75 15 47.5 15 39 15 C39 29.52 39 44.04 39 59 C34.38 59 29.76 59 25 59 C25 44.48 25 29.96 25 15 C16.75 15 8.5 15 0 15 C0 10.05 0 5.1 0 0 Z " fill="#00008B" transform="translate(978,633)"/>
<path d="M0 0 C4.95 0 9.9 0 15 0 C15 14.19 15 28.38 15 43 C26.88 43.33 38.76 43.66 51 44 C51 48.95 51 53.9 51 59 C34.17 59 17.34 59 0 59 C0 39.53 0 20.06 0 0 Z " fill="#00008B" transform="translate(128,633)"/>
<path d="M0 0 C4.62 0 9.24 0 14 0 C15 1 15 1 15.11352539 4.96899414 C15.1133662 6.74105607 15.10766785 8.5131226 15.09765625 10.28515625 C15.0962413 11.21597519 15.09482635 12.14679413 15.09336853 13.1058197 C15.08775172 16.09141191 15.0751964 19.07693029 15.0625 22.0625 C15.05748716 24.08137913 15.05292388 26.10025943 15.04882812 28.11914062 C15.03862587 33.07947871 15.01905382 38.0396563 15 43 C26.55 43.33 38.1 43.66 50 44 C50 48.95 50 53.9 50 59 C33.5 59 17 59 0 59 C0 39.53 0 20.06 0 0 Z " fill="#00008B" transform="translate(1771,633)"/>
<path d="M0 0 C4.95 0 9.9 0 15 0 C15 19.47 15 38.94 15 59 C10.05 59 5.1 59 0 59 C0 39.53 0 20.06 0 0 Z " fill="#00008B" transform="translate(1108,633)"/>
<path d="M0 0 C4.62 0 9.24 0 14 0 C14 19.47 14 38.94 14 59 C9.38 59 4.76 59 0 59 C0 39.53 0 20.06 0 0 Z " fill="#00008B" transform="translate(1605,633)"/>
</svg>
